<svg xmlns="http://www.w3.org/2000/svg" width="91" height="74" viewBox="0 0 91 74">
    <g fill="none" fill-rule="evenodd" stroke="#323232" stroke-linecap="round" stroke-linejoin="round" opacity=".6">
        <path d="M.57 73.424h89.86M5.99 72.848V31.385h28.813v41.751M12.552 11.518V26.49M9.7 26.49V6.047h2.852v3.167M27.956 9.214V6.047h2.853V26.49M27.956 26.49V11.23M24.818.864v8.35M15.975 9.214V.864"/>
        <path d="M5.932 31.434L4.649 29.37H21.68"/>
        <path d="M34.687 31.434l1.393-2.064H18.828M5.99 29.082V26.49h28.242v2.592M9.7 26.778v2.016M11.41 26.778v2.016M15.975 26.778v2.016M17.972 26.778v2.016M21.966 26.778v2.016M23.962 26.778v2.016M28.527 26.778v2.016M30.238 26.778v2.016M10.27 9.502h6.56v1.728H9.7M30.238 9.502h-6.56v1.728h7.13M15.12 25.914v-8.178c0-.676.412-1.223.998-1.223.585 0 .998.547.998 1.223v8.466M19.113 25.914v-8.178c0-.676.413-1.223.998-1.223.586 0 .999.547.999 1.223v8.466M23.107 25.914v-8.178c0-.676.413-1.223.998-1.223.586 0 .998.547.998 1.223v8.466M16.26 3.167h8.273M22.13 6.982c0 .978-.785 1.77-1.753 1.77a1.763 1.763 0 0 1-1.754-1.77c0-.978.785-1.77 1.754-1.77.968 0 1.754.792 1.754 1.77zM15.975 13.245v.864M19.969 13.245v.864M23.962 13.245v.864M6.561 41.463h27.671M6.561 52.117h27.671M9.129 57.875h1.711v-2.879H9.13zM14.263 57.875h1.712v-2.879h-1.712zM19.398 57.875h1.712v-2.879h-1.712zM24.533 57.875h1.712v-2.879h-1.712zM29.668 57.875h1.711v-2.879h-1.711zM9.129 63.634h1.711v-2.88H9.13zM14.263 63.634h1.712v-2.88h-1.712zM20.254 60.647c-.502 0-.856.366-.856.816v2.171h1.712v-2.171c0-.45-.354-.816-.856-.816zM24.533 63.634h1.712v-2.88h-1.712zM29.668 63.634h1.711v-2.88h-1.711zM12.266 72.848v-4.075c0-1.258.875-2.279 1.997-2.279 1.123 0 1.997 1.02 1.997 2.28v4.362M23.107 72.848v-4.075c0-1.258.732-2.279 1.854-2.279s1.854 1.02 1.854 2.28v4.362M8.273 72.848v-3.455h1.711v3.455M18.828 72.848v-3.455h1.711v3.455M29.382 72.848v-3.455h1.712v3.455M20.73 66.457a.913.913 0 0 1-.908.918.913.913 0 0 1-.91-.918c0-.507.407-.917.91-.917.501 0 .908.41.908.917zM14.834.576h11.125M11.981 51.253v-7.774h4.28v8.062M18.542 51.253v-7.774h3.994v8.062M24.818 51.253v-7.774h4.28v8.062M11.981 41.175v-7.198h4.28v7.486M18.542 41.175v-7.198h3.994v7.486M24.818 41.175v-7.198h4.28v7.486M30.809 51.54v-3.226c0-.619.496-1.121.998-1.121s.999.502.999 1.121v2.939M30.809 41.175v-3.258c0-.619.496-1.12.998-1.12s.999.501.999 1.12v2.97M8.273 51.54v-3.226c0-.619.353-1.121.856-1.121.502 0 .855.502.855 1.121v2.939M8.273 41.175v-3.258c0-.619.353-1.12.856-1.12.502 0 .855.501.855 1.12v2.97M57.339 72.848V31.385h28.526v41.751M63.9 11.518V26.49M60.762 26.49V6.047H63.9v3.167M79.019 9.214V6.047h3.138V26.49M79.019 26.49V11.23M75.88.864v8.35M67.323 9.214V.864"/>
        <path d="M57.205 31.434l-1.358-2.064h17.181"/>
        <path d="M85.817 31.434l1.46-2.064H69.89M57.339 29.082V26.49h27.956v2.592M60.762 26.778v2.016M62.759 26.778v2.016M67.323 26.778v2.016M69.034 26.778v2.016M73.313 26.778v2.016M75.025 26.778v2.016M79.59 26.778v2.016M81.586 26.778v2.016M61.332 9.502h6.847v1.728h-7.417M81.586 9.502H74.74v1.728h7.417M66.182 25.914v-8.178c0-.676.555-1.223 1.14-1.223.587 0 1.142.547 1.142 1.223v8.466M70.176 25.914v-8.178c0-.676.555-1.223 1.14-1.223.586 0 1.142.547 1.142 1.223v8.466M74.17 25.914v-8.178c0-.676.412-1.223.998-1.223.585 0 .998.547.998 1.223v8.466M67.608 3.167h7.988M73.329 6.982c0 .978-.786 1.77-1.754 1.77-.969 0-1.754-.792-1.754-1.77s.785-1.77 1.754-1.77c.968 0 1.754.792 1.754 1.77zM67.323 13.245v.864M71.031 13.245v.864M75.025 13.245v.864M57.91 41.463h27.385M57.91 52.117h27.385M60.191 57.875h1.997v-2.879h-1.997zM65.326 57.875h1.997v-2.879h-1.997zM70.46 57.875h1.998v-2.879H70.46zM75.596 57.875h1.996v-2.879h-1.996zM80.73 57.875h1.997v-2.879H80.73zM60.191 63.634h1.997v-2.88h-1.997zM65.326 63.634h1.997v-2.88h-1.997zM71.46 60.647c-.503 0-1 .366-1 .816v2.171h1.998v-2.171c0-.45-.497-.816-.999-.816zM75.596 63.634h1.996v-2.88h-1.996zM80.73 63.634h1.997v-2.88H80.73zM63.614 72.848v-4.075c0-1.258.875-2.279 1.997-2.279 1.123 0 1.997 1.02 1.997 2.28v4.362M74.17 72.848v-4.075c0-1.258.874-2.279 1.996-2.279 1.122 0 1.997 1.02 1.997 2.28v4.362M59.335 72.848v-3.455h1.712v3.455M69.89 72.848v-3.455h1.997v3.455M80.445 72.848v-3.455h1.997v3.455M71.928 66.457a.913.913 0 0 1-.909.918.913.913 0 0 1-.908-.918c0-.507.407-.917.908-.917.502 0 .91.41.91.917zM65.897.576h11.41M63.33 51.253v-7.774h4.278v8.062M69.605 51.253v-7.774h4.279v8.062M75.88 51.253v-7.774h4.28v8.062M63.33 41.175v-7.198h4.278v7.486M69.605 41.175v-7.198h4.279v7.486M75.88 41.175v-7.198h4.28v7.486M82.157 51.54v-3.226c0-.619.353-1.121.856-1.121.502 0 .855.502.855 1.121v2.939M82.157 41.175v-3.258c0-.619.353-1.12.856-1.12.502 0 .855.501.855 1.12v2.97M59.335 51.54v-3.226c0-.619.354-1.121.856-1.121s.856.502.856 1.121v2.939M59.335 41.175v-3.258c0-.619.354-1.12.856-1.12s.856.501.856 1.12v2.97"/>
    </g>
</svg>
