<svg xmlns="http://www.w3.org/2000/svg" xmlns:xlink="http://www.w3.org/1999/xlink" width="91" height="58" viewBox="0 0 91 58">
    <defs>
        <path id="a" d="M0 58h91V0H0z"/>
    </defs>
    <g fill="none" fill-rule="evenodd" opacity=".6">
        <path stroke="#323232" stroke-linecap="round" stroke-linejoin="round" d="M72.232 9.886c0 2.043-1.654 3.7-3.691 3.7a3.695 3.695 0 0 1-3.69-3.7c0-2.043 1.651-3.7 3.69-3.7a3.696 3.696 0 0 1 3.69 3.7z"/>
        <path stroke="#323232" stroke-linecap="round" stroke-linejoin="round" d="M68.567 7.41v2.556l1.593.48M90.505 57.504H.495"/>
        <mask id="b" fill="#fff">
            <use xlink:href="#a"/>
        </mask>
        <path stroke="#323232" stroke-linecap="round" stroke-linejoin="round" d="M4.946 50.068h81.108v-2.726H4.946zM7.171 50.316v6.94M83.829 50.316v6.94M43.769 57.256v-5.205h3.215v5.205M48.962 57.256v-5.205h3.215v5.205M54.402 55.77h2.226V52.05h-2.226zM58.359 55.77h2.225V52.05H58.36zM62.563 55.77h2.225V52.05h-2.225zM66.519 55.77h2.226V52.05h-2.226zM70.476 55.77H72.7V52.05h-2.225zM74.68 55.77h2.225V52.05h-2.226zM78.636 55.77h2.225V52.05h-2.225zM9.644 55.77h2.226V52.05H9.644zM9.644 47.342h2.226v-2.974H9.644zM13.848 47.342h2.225v-2.974h-2.225zM18.299 47.342h2.225v-2.974H18.3zM22.503 47.342h2.225v-2.974h-2.225zM26.707 47.342h2.225v-2.974h-2.225zM31.158 47.342h2.225v-2.974h-2.225zM35.361 47.342h2.226v-2.974h-2.226zM39.813 47.342h2.225v-2.974h-2.225zM44.016 47.342h2.226v-2.974h-2.226zM48.22 47.342h2.226v-2.974H48.22zM52.671 47.342h2.226v-2.974H52.67zM56.875 47.342h2.226v-2.974h-2.226zM61.079 47.342h2.225v-2.974H61.08zM65.53 47.342h2.225v-2.974H65.53zM69.734 47.342h2.225v-2.974h-2.225zM74.185 47.342h2.225v-2.974h-2.225zM78.389 47.342h2.225v-2.974H78.39zM9.644 40.402h2.226V35.94H9.644zM13.848 40.402h2.225V35.94h-2.225zM18.299 40.402h2.225V35.94H18.3zM22.503 40.402h2.225V35.94h-2.225zM26.707 40.402h2.225V35.94h-2.225zM31.158 40.402h2.225V35.94h-2.225zM35.361 40.402h2.226V35.94h-2.226zM39.813 40.402h2.225V35.94h-2.225zM44.016 40.402h2.226V35.94h-2.226zM48.22 40.402h2.226V35.94H48.22zM52.671 40.402h2.226V35.94H52.67zM56.875 40.402h2.226V35.94h-2.226zM61.079 40.402h2.225V35.94H61.08zM65.53 40.402h2.225V35.94H65.53zM69.734 40.402h2.225V35.94h-2.225zM74.185 40.402h2.225V35.94h-2.225zM78.389 40.402h2.225V35.94H78.39zM13.6 55.77h2.226V52.05h-2.225zM17.804 55.77h2.226V52.05h-2.226zM21.76 55.77h2.226V52.05h-2.225zM25.717 55.77h2.226V52.05h-2.226zM29.921 55.77h2.226V52.05H29.92zM33.878 55.77h2.225V52.05h-2.225zM38.576 57.256v-5.205h3.215v5.205" mask="url(#b)"/>
        <path stroke="#323232" stroke-linecap="round" stroke-linejoin="round" d="M82.592 47.342v-5.205H7.913v5.205" mask="url(#b)"/>
        <path stroke="#323232" stroke-linecap="round" stroke-linejoin="round" d="M82.592 42.632v-2.23H7.913v2.23M82.592 39.906V22.803H7.913v17.103M15.084 22.803h15.579V.496H15.084z" mask="url(#b)"/>
        <path stroke="#323232" stroke-linecap="round" stroke-linejoin="round" d="M16.815 20.82H18.3V16.36h-1.484zM20.277 20.82h1.484V16.36h-1.484zM23.492 20.82h1.484V16.36h-1.484zM26.954 20.82h1.483V16.36h-1.483zM15.084 3.718h15.332M22.75 2.23v7.437M60.832 22.803H76.41V.496H60.832z" mask="url(#b)"/>
        <path stroke="#323232" stroke-linecap="round" stroke-linejoin="round" d="M62.563 20.82h1.483V16.36h-1.484zM66.024 20.82h1.484V16.36h-1.484zM69.24 20.82h1.483V16.36h-1.484zM72.701 20.82h1.484V16.36H72.7zM60.832 3.718h15.331M7.913 35.692h74.68M66.519 35.692h4.946v-8.18h-4.946zM62.315 32.718h1.978v-1.24h-1.978zM73.443 32.718h1.978v-1.24h-1.978z" mask="url(#b)"/>
    </g>
</svg>
