<svg xmlns="http://www.w3.org/2000/svg" xmlns:xlink="http://www.w3.org/1999/xlink" width="82" height="91" viewBox="0 0 82 91">
    <defs>
        <path id="a" d="M0 .477H81.44v90.257H0z"/>
    </defs>
    <g fill="none" fill-rule="evenodd" opacity=".6">
        <path fill="#323232" d="M63.564 45.41l-.009 3.908c0 .248.027.468.264.54l2.364.738c.054.017.074.024.128.024.241 0 .516-.156.59-.4.09-.298-.028-.613-.325-.703l-1.896-.616.007-3.487a.563.563 0 1 0-1.123-.003M57.406 35.873c.31 0 .563-.25.563-.562l.006-2.897a.563.563 0 1 0-1.123-.003l-.006 2.898c0 .311.25.563.56.564M59.653 35.878c.31 0 .562-.25.563-.562l.006-2.898a.563.563 0 1 0-1.123-.002l-.007 2.897c0 .312.251.564.561.565M61.9 35.883c.31 0 .562-.25.562-.562l.006-2.898a.563.563 0 1 0-1.123-.002l-.006 2.897c0 .312.25.564.56.565M63.584 35.886c.31.001.563-.25.563-.562l.006-2.897a.563.563 0 1 0-1.123-.003l-.006 2.898c0 .311.25.564.56.564M65.831 35.891c.31 0 .562-.25.563-.562l.006-2.897a.563.563 0 1 0-1.123-.003l-.006 2.898c-.001.311.25.564.56.564M68.077 35.896c.31 0 .563-.25.563-.562l.007-2.897a.563.563 0 1 0-1.123-.003l-.007 2.898c0 .311.25.564.56.564M70.324 35.901c.31 0 .562-.25.563-.562l.006-2.897a.563.563 0 1 0-1.123-.003l-.007 2.898c0 .311.251.564.561.564M57.898 68.158c.31 0 .562-.251.563-.563l.013-6.125a.562.562 0 1 0-1.123-.002l-.013 6.125c-.001.312.25.564.56.565M61.83 68.166c.31.001.562-.25.562-.562l.014-6.125a.563.563 0 0 0-.56-.566c-.31 0-.563.251-.564.563l-.013 6.125c0 .312.25.564.56.565M65.761 68.175c.31 0 .562-.251.563-.563l.013-6.125a.562.562 0 1 0-1.123-.002L65.2 67.61c0 .312.25.564.56.565M69.693 68.184c.31 0 .562-.251.562-.563l.013-6.125a.562.562 0 1 0-1.123-.003l-.013 6.125c0 .312.25.564.56.566M57.86 85.872c.31 0 .562-.251.563-.563l.02-9.27a.562.562 0 1 0-1.124-.003l-.02 9.27c0 .312.25.565.56.566M61.791 85.88c.31 0 .562-.251.563-.563l.02-9.27a.562.562 0 0 0-1.123-.003l-.02 9.271c0 .312.25.564.56.565M65.723 85.889c.31 0 .562-.251.563-.563l.02-9.27a.562.562 0 1 0-1.124-.003l-.02 9.27c0 .313.25.565.56.566M69.654 85.897c.31.001.562-.25.563-.562l.02-9.27a.562.562 0 0 0-1.123-.003l-.02 9.27c0 .312.25.564.56.565M63.959 18.074a.506.506 0 0 0-.506.506l-.001.372a.505.505 0 1 0 1.01.002l.001-.373a.506.506 0 0 0-.504-.507M65.644 18.074a.506.506 0 0 0-.507.506v.372a.505.505 0 1 0 1.01.002v-.373a.506.506 0 0 0-.503-.507M62.443 18.074a.506.506 0 0 0-.506.506v.372a.505.505 0 1 0 1.01.002v-.373a.506.506 0 0 0-.504-.507"/>
        <g transform="translate(0 .086)">
            <mask id="b" fill="#fff">
                <use xlink:href="#a"/>
            </mask>
            <path fill="#323232" d="M72.497 69.865l-17.41-.038.022-10.707 17.411.037-.023 10.708zm-.005 2.254l-17.411-.037.003-1.128 17.41.038-.002 1.127zm-.038 17.47l-17.41-.037.035-16.343 17.41.038-.035 16.343zM57.636 49.545c.262 2.818 2.537 5.48 5.345 5.755l-.004 1.66c-3.37-.285-6.728-3.473-6.996-7.418l1.655.003zm5.372-6.627c-2.81.263-5.096 2.683-5.37 5.5l-1.654-.003c.285-3.945 3.656-6.887 7.027-7.158l-.003 1.661zm5.874 6.204c-.006 2.808-2.288 5.088-5.087 5.081-2.704-.006-4.91-2.146-5.05-4.824a.553.553 0 0 0 .086-.28.551.551 0 0 0-.085-.28c.15-2.624 2.283-4.718 4.916-4.794.05.016.1.033.155.033.056 0 .107-.016.157-.031a5.087 5.087 0 0 1 4.908 5.095zm2.748.453c-.285 3.945-3.597 7.118-7.53 7.387l.004-1.66c3.37-.261 5.598-2.913 5.872-5.73l1.654.003zm-1.652-1.13c-.262-2.819-2.478-5.248-5.847-5.525l.003-1.66c3.931.286 7.23 3.243 7.499 7.188l-1.655-.003zm-17.113 9.543l.04-18.034 21.903.048-.04 18.034-9.684-.02c4.337-.626 7.69-4.363 7.699-8.886.011-4.966-4.007-9.016-8.957-9.026-4.949-.011-8.985 4.02-8.995 8.987-.01 4.524 3.326 8.275 7.66 8.918l-9.626-.02zM52.19 38.8h-.365c-.35 0-.634-.202-.633-.553 0-.351.286-.558.635-.556l24.006.055c.35 0 .635.215.634.566 0 .351-.286.526-.636.525l-.365-.037H52.191zm19.828-7.259l-.012 5.073-16.287-.036.01-5.072 16.289.035zM54.49 29.515c.001-.351.287-.83.637-.828l17.445.038c.35 0 .635.46.633.812 0 .351-.286.81-.636.81H55.124c-.35 0-.633-.481-.633-.832zm5.586-5.89l7.57.016c1.792 2.259 2.862 3.389 3.516 3.953l-14.618-.032c.655-.561 1.731-1.687 3.532-3.937zm.303-2.254l6.974.016c.35 0 .634.214.633.565-.001.351-.286.562-.636.562l-6.973-.015c-.35-.001-.635-.214-.634-.565 0-.351.286-.563.636-.563zm.436-3.943l6.178.014-.006 2.817-6.178-.014.006-2.817zm3.08-10.752h.005c.422 1.691 1.765 6.228 2.786 9.612l-5.619-.024c1.036-3.38 2.398-7.897 2.829-9.588zm-9.933 63.149l-9.548-.021.007-3.382 9.548.021-.007 3.382zm-.005 2.254l-9.548-.021.003-1.127 9.548.02-.003 1.128zm-.038 17.47l-9.333-.02c0-.011-.215-.02-.215-.033l.036-16.31 9.547.02-.035 16.343zm-11.753-.025c0-.011-.041-.02-.041-.032l.05-23.074 1.123.002-.05 23.074c0 .012.227.022.227.033l-1.31-.003zM31.266 89.5c0-.012.188-.02.188-.032l.036-16.311 9.548.02-.036 16.312c0 .012.054.02.054.032l-9.79-.021zm.229-18.597l9.548.02-.003 1.128-9.548-.021.003-1.127zm.01-4.509l9.547.021-.007 3.381-9.548-.02.007-3.382zM30.33 89.466c0 .012-.177.02-.176.032l-.747-.002c0-.01-.2-.021-.2-.033l.05-23.074 1.123.003-.05 23.074zm-11.264.007c0-.011.031-.02.031-.032l.036-16.311 8.986.02-.036 16.31c0 .013.213.023.213.034l-9.23-.02zm.072-18.597l8.986.02-.003 1.126-8.986-.02.003-1.126zm.01-4.509l8.985.02-.007 3.381-8.986-.02.007-3.38zM17.974 89.44c0 .012-.019.021-.019.032l-1.308-.003c.001-.011.204-.02.204-.031l.05-23.075 1.123.003-.05 23.074zM15.77 69.74l-8.58-.018 2.099-3.377 6.488.014-.007 3.381zm-.005 2.254l-8.986-.02.002-1.126 8.987.02-.003 1.126zm-.038 17.44c0 .01-.19.02-.19.03l-8.796-.019.035-16.343 8.987.02-.036 16.311zm65.151.173l-7.301-.016.065-30.432 1.609.003c.31.001.638-.031.638-.343l.041-18.774c1.124-.011 1.728-.793 1.73-1.757.001-.76-.6-1.404-1.16-1.653l.008-4.185a.562.562 0 1 0-1.123-.003l-.009 4.173-2.246-.005.011-5.36c.562-.23 1.239-.884 1.24-1.666.002-.796-.671-1.466-1.232-1.685l.008-4.07a.562.562 0 1 0-1.123-.003l-.007 3.155c-1.121-1.009-2.32-2.627-3.382-3.868.308-.317.58-.747.58-1.224.002-.775-.554-1.429-1.115-1.667l.007-3.233c0-.025-.039-.377-.087-.537 0 0-.803-2.589-1.587-5.179-.392-1.294-.923-2.59-1.22-3.561-.233-.756-.347-1.228-.452-1.523l.01-5.21c.001-.273-.44-.508-.814-.508h-.193c-.373 0-.677.232-.677.504l-.01 4.726c0 .04-.228.302-.758 2.004-.301.97-.637 2.264-1.035 3.557a482.748 482.748 0 0 0-1.553 5.172c-.05.159-.048.511-.048.536l-.007 3.234c-.563.235-1.132.886-1.134 1.661-.001.477.299.909.606 1.228-1.136 1.316-2.855 3.059-3.419 4.04l.007-3.342a.562.562 0 1 0-1.123-.002l-.009 4.122c-.562.262-1.155.892-1.157 1.628-.002.781.588 1.44 1.15 1.671l-.012 5.36-2.246-.005.009-4.172a.562.562 0 1 0-1.124-.003l-.009 4.256c-.562.286-1.081.882-1.083 1.577-.002.963.515 1.749 1.638 1.764l-.04 18.775c-.001.311.267.344.577.345l1.668.004-.014 6.199-10.67-.023.014-6.481a.563.563 0 1 0-1.124-.002l-.154 6.48-11.584-.025-.056-6.481a.563.563 0 1 0-1.123-.003l-.014 6.48-11.233-.023.014-6.481a.563.563 0 1 0-1.124-.003l-.014 6.48-7.908-.016c-.186 0-.36.155-.465.31l-2.868 4.219c-.109.158-.076.376-.003.55-.03.07 0 .162 0 .242l-.041 18.905-5.055-.01c-.31-.001-.562.25-.563.562 0 .311.25.564 0 .563l80.314.175c.872.002 1.123-.25 1.124-.561a.562.562 0 0 0-.56-.565z" mask="url(#b)"/>
        </g>
    </g>
</svg>
