<svg xmlns="http://www.w3.org/2000/svg" width="92" height="64" viewBox="0 0 92 64">
    <g fill="none" fill-rule="evenodd" stroke="#323232" opacity=".6">
        <path stroke-linecap="round" stroke-linejoin="round" d="M42.52 26.141h-5.075M58.295 33.109v-6.968M52.92 26.141h-4.99M32.035 32.934v-6.792"/>
        <path d="M30.327 39.996v-6.682h5.218v3.631h3.035v-3.631h5.222v3.631h2.844v-3.631h5.222v3.631h3.035v-3.631h5.218v6.682-3.053 25.921H30.326V36.943"/>
        <path stroke-linecap="round" stroke-linejoin="round" d="M38.68 62.863v-9.62c0-3.594 2.947-6.54 6.549-6.54 1.8 0 3.434.734 4.62 1.92a6.516 6.516 0 0 1 1.92 4.62v9.62M40.063 51.212v-1.984M42.114 51.212V47.58M44.164 51.212v-4.42M46.215 51.212V46.78M48.266 51.212v-3.66M50.317 51.212v-2.046M38.92 51.496h12.602M40.063 51.496v11.367M42.115 51.496v11.367M44.167 51.496v11.367M46.212 51.496v11.367M48.264 51.496v11.367M50.317 51.496v11.367M38.684 55.319h13.088M38.69 59.07H51.78M37.445 26.141v-2.509h-5.41v2.51M42.52 26.141v-2.509h5.41v2.51M58.295 26.141v-2.509H52.92v2.51"/>
        <path stroke-linecap="round" stroke-linejoin="round" d="M50.427 26.14v-8.782c0-1.16 1.34-2.114 2.98-2.114h.315c1.647 0 2.987.954 2.987 2.114v6.273M39.985 26.14v-8.782c0-1.16-1.347-2.114-2.988-2.114h-.314c-1.64 0-2.987.954-2.987 2.114v6.273M50.288 26.14c.02-.128.028-.258.028-.39v-9.607c0-1.003-.58-1.92-1.515-2.583-.942-.662-2.227-1.072-3.65-1.072-2.841 0-5.166 1.646-5.166 3.655v9.607c0 .133.007.262.028.39"/>
        <path stroke-linecap="round" stroke-linejoin="round" d="M41.486 13.668v-5.55h7.329v5.643"/>
        <path stroke-linecap="round" stroke-linejoin="round" d="M41.486 8.118c0-1.533 1.64-2.778 3.665-2.778 2.023 0 3.663 1.245 3.663 2.778M45.224 5.34V.5M43.396 2.015h3.665M43.772 19.978h2.75-.004v-3.69c0-.943-.614-1.721-1.368-1.721h-.007c-.754 0-1.368.778-1.368 1.722v3.689h-.003zM52.495 22.028h2.147-.002v-2.3c0-.589-.48-1.075-1.069-1.075h-.005c-.589 0-1.069.486-1.069 1.074v2.301h-.002zM35.767 22.028h2.147-.002v-2.3c0-.589-.48-1.075-1.07-1.075h-.004c-.59 0-1.07.486-1.07 1.074v2.301h-.001zM33.757 30.274h2.147-.002v-2.301c0-.588-.48-1.074-1.069-1.074h-.005c-.589 0-1.069.486-1.069 1.074v2.3h-.002zM44.073 30.492h2.147-.002V28.19c0-.588-.48-1.074-1.069-1.074h-.005c-.589 0-1.069.486-1.069 1.074v2.3h-.002zM54.312 30.492h2.147-.002V28.19c0-.588-.48-1.074-1.07-1.074h-.005c-.588 0-1.068.486-1.068 1.074v2.3h-.002zM80 62.863H60.121V44.83h9.641zM9.5 62.863h20.82V44.83H19.447zM1 63h89.859"/>
    </g>
</svg>
