<svg xmlns="http://www.w3.org/2000/svg" xmlns:xlink="http://www.w3.org/1999/xlink" width="80" height="91" viewBox="0 0 80 91">
    <defs>
        <path id="a" d="M0 91h80V0H0z"/>
    </defs>
    <g fill="none" fill-rule="evenodd" opacity=".6">
        <path fill="#323232" d="M35.31 31.988h-2.758a.551.551 0 1 0 0 1.103h2.758a.551.551 0 1 0 0-1.103M35.31 35.297h-2.758a.551.551 0 1 0 0 1.103h2.758a.551.551 0 1 0 0-1.103M35.31 38.606h-2.758a.551.551 0 1 0 0 1.103h2.758a.551.551 0 1 0 0-1.103M27.586 48.533h-2.758a.551.551 0 1 0 0 1.103h2.758a.551.551 0 1 0 0-1.103M27.586 52.394h-2.758a.551.551 0 1 0 0 1.103h2.758a.551.551 0 1 0 0-1.103M27.586 55.152h-2.758a.551.551 0 1 0 0 1.103h2.758a.551.551 0 1 0 0-1.103M34.759 48.533H32a.551.551 0 1 0 0 1.103h2.759a.551.551 0 1 0 0-1.103M34.759 52.394H32a.551.551 0 1 0 0 1.103h2.759a.551.551 0 1 0 0-1.103M34.759 55.152H32a.551.551 0 1 0 0 1.103h2.759a.551.551 0 1 0 0-1.103M41.931 48.533h-2.759a.551.551 0 1 0 0 1.103h2.759a.551.551 0 1 0 0-1.103M41.931 52.394h-2.759a.551.551 0 1 0 0 1.103h2.759a.551.551 0 1 0 0-1.103M41.931 55.152h-2.759a.551.551 0 1 0 0 1.103h2.759a.551.551 0 1 0 0-1.103M27.586 61.218h-2.758a.551.551 0 1 0 0 1.103h2.758a.551.551 0 1 0 0-1.103M27.586 63.976h-2.758a.551.551 0 1 0 0 1.103h2.758a.551.551 0 1 0 0-1.103M27.586 67.836h-2.758a.551.551 0 1 0 0 1.103h2.758a.551.551 0 1 0 0-1.103M34.759 61.218H32a.551.551 0 1 0 0 1.103h2.759a.551.551 0 1 0 0-1.103M34.759 63.976H32a.551.551 0 1 0 0 1.103h2.759a.551.551 0 1 0 0-1.103M34.759 67.836H32a.551.551 0 1 0 0 1.103h2.759a.551.551 0 1 0 0-1.103M41.931 61.218h-2.759a.551.551 0 1 0 0 1.103h2.759a.551.551 0 1 0 0-1.103M41.931 63.976h-2.759a.551.551 0 1 0 0 1.103h2.759a.551.551 0 1 0 0-1.103M41.931 67.836h-2.759a.551.551 0 1 0 0 1.103h2.759a.551.551 0 1 0 0-1.103M27.586 73.352h-2.758a.551.551 0 1 0 0 1.103h2.758a.551.551 0 1 0 0-1.103M27.586 76.66h-2.758a.551.551 0 1 0 0 1.104h2.758a.551.551 0 1 0 0-1.103M27.586 79.97h-2.758a.551.551 0 1 0 0 1.103h2.758a.551.551 0 1 0 0-1.103M34.759 73.352H32a.551.551 0 1 0 0 1.103h2.759a.551.551 0 1 0 0-1.103M34.759 76.66H32a.551.551 0 1 0 0 1.104h2.759a.551.551 0 1 0 0-1.103M34.759 79.97H32a.551.551 0 1 0 0 1.103h2.759a.551.551 0 1 0 0-1.103M41.931 73.352h-2.759a.551.551 0 1 0 0 1.103h2.759a.551.551 0 1 0 0-1.103M41.931 76.66h-2.759a.551.551 0 1 0 0 1.104h2.759a.551.551 0 1 0 0-1.103M41.931 79.97h-2.759a.551.551 0 1 0 0 1.103h2.759a.551.551 0 1 0 0-1.103M23.172 36.952a.551.551 0 0 0-.551.551v.552a.551.551 0 1 0 1.103 0v-.552a.551.551 0 0 0-.552-.551M43.586 38.606a.551.551 0 0 0 .552-.551v-.552a.551.551 0 1 0-1.104 0v.552c0 .305.247.551.552.551M7.724 79.418h.552a.551.551 0 1 0 0-1.103h-.552a.551.551 0 1 0 0 1.103M8.276 81.073h-.552a.551.551 0 1 0 0 1.103h.552a.551.551 0 1 0 0-1.103M8.276 83.83h-.552a.551.551 0 1 0 0 1.103h.552a.551.551 0 1 0 0-1.103M8.276 86.588h-.552a.551.551 0 1 0 0 1.103h.552a.551.551 0 1 0 0-1.103M49.655 71.145h.552a.551.551 0 1 0 0-1.103h-.552a.551.551 0 1 0 0 1.103M49.655 73.903h.552a.551.551 0 1 0 0-1.103h-.552a.551.551 0 1 0 0 1.103M49.655 76.66h.552a.551.551 0 1 0 0-1.102h-.552a.551.551 0 1 0 0 1.103M49.655 78.867h.552a.551.551 0 1 0 0-1.103h-.552a.551.551 0 1 0 0 1.103M52.414 71.145h1.103a.551.551 0 1 0 0-1.103h-1.103a.551.551 0 1 0 0 1.103M52.414 73.903h1.103a.551.551 0 1 0 0-1.103h-1.103a.551.551 0 1 0 0 1.103M52.414 76.66h1.103a.551.551 0 1 0 0-1.102h-1.103a.551.551 0 1 0 0 1.103M52.414 78.867h1.103a.551.551 0 1 0 0-1.103h-1.103a.551.551 0 1 0 0 1.103M49.655 83.83h.552a.551.551 0 1 0 0-1.103h-.552a.551.551 0 1 0 0 1.103M50.207 84.933h-.552a.551.551 0 1 0 0 1.103h.552a.551.551 0 1 0 0-1.103M52.414 83.83h1.103a.551.551 0 1 0 0-1.103h-1.103a.551.551 0 1 0 0 1.103M52.414 86.036h1.103a.551.551 0 1 0 0-1.103h-1.103a.551.551 0 1 0 0 1.103M70.069 74.455h1.103a.551.551 0 1 0 0-1.103H70.07a.551.551 0 1 0 0 1.103M70.069 77.764h1.103a.551.551 0 1 0 0-1.103H70.07a.551.551 0 1 0 0 1.103M70.069 81.073h1.103a.551.551 0 1 0 0-1.103H70.07a.551.551 0 1 0 0 1.103M70.069 84.382h1.103a.551.551 0 1 0 0-1.103H70.07a.551.551 0 1 0 0 1.103M71.172 86.588H70.07a.551.551 0 1 0 0 1.103h1.103a.551.551 0 1 0 0-1.103"/>
        <mask id="b" fill="#fff">
            <use xlink:href="#a"/>
        </mask>
        <path fill="#323232" d="M4.966 89.897h5.517V77.212H4.966v12.685zm6.62-23.164h8.276V61.77h-8.276v4.963zm9.931-31.173c0-1.552 2.044-2.15 2.759-2.259v7.511h-2.759V35.56zM33.38 24.176c4.336 0 8 3.778 8 8.25v.138c-.012.038-.032.074-.036.115a.53.53 0 0 0 .036.249v7.884h-1.655v-6.618-.002c.013-3.94-2.658-7.168-5.958-7.168h-.024c-1.44 0-2.849.64-3.97 1.755-1.39 1.382-2.186 3.398-2.186 5.485v6.548H25.38V32.32c0-4.491 3.59-8.144 8-8.144zm.17-3.29c2.283 0 4.182 1.542 4.56 3.564a8.852 8.852 0 0 0-4.73-1.377 8.932 8.932 0 0 0-4.332 1.116c.487-1.892 2.319-3.304 4.502-3.304zm.033-7.917l1.326 6.973c-.437-.1-.89-.16-1.359-.16-.595 0-1.169.086-1.708.246l1.741-7.059zM44.69 35.56v5.252h-2.207v-7.386c.89.258 2.207.888 2.207 2.134zM11.586 89.897h8.276v-3.31h-8.276v3.31zm0-19.855h8.276v-2.206h-8.276v2.206zm0 15.443h8.276v-2.206h-8.276v2.206zm0-11.03h8.276v-3.31h-8.276v3.31zm0 7.72h8.276v-3.308h-8.276v3.309zm0-4.411h8.276v-2.206h-8.276v2.206zm34.759 12.133h-25.38V41.915h7.173a.551.551 0 0 0 .552-.551v-7.1c0-1.796.678-3.527 1.861-4.704.912-.908 2.045-1.433 3.19-1.433h.019c2.695 0 4.875 2.732 4.86 6.07v7.167c0 .305.247.551.552.551h7.173v47.982zm1.103 0h8.276v-21.51h-8.276v21.51zm9.38-28.679h9.379v-6.066h-9.38v6.066zm0 28.679h9.379v-4.412h-9.38v4.412zm0-25.37h9.379v-2.206h-9.38v2.206zm0 19.855h9.379v-2.758h-9.38v2.758zm0-3.86h9.379v-2.758h-9.38v2.757zm0-3.861h9.379v-2.758h-9.38v2.758zm0-3.861h9.379v-2.758h-9.38V72.8zm0-3.86h9.379v-3.31h-9.38v3.31zM67.31 89.896h5.518v-18.2H67.31v18.2zm12.138 0h-5.517V71.145a.551.551 0 0 0-.552-.551H67.31V54.6a.551.551 0 0 0-.551-.552H56.276a.551.551 0 0 0-.552.552v12.685h-8.276V41.364a.551.551 0 0 0-.551-.552h-1.104V35.56c0-1.911-1.86-2.958-3.317-3.28a9.43 9.43 0 0 0-3.211-6.977c.008-.038.022-.072.022-.112 0-2.114-1.296-3.944-3.177-4.833l-1.903-10.013V.552a.551.551 0 1 0-1.104 0v9.79c-.005.014-.014.025-.018.04l-2.517 10.196c-1.599.922-2.682 2.557-2.747 4.435a9.273 9.273 0 0 0-3.539 7.18c-.01 0-.018-.004-.027-.003-1.485.162-3.841 1.22-3.841 3.37v5.252a.551.551 0 0 0-.552.552v19.303h-8.828a.551.551 0 0 0-.551.551V76.11h-6.07a.551.551 0 0 0-.55.552v13.236H.551a.551.551 0 1 0 0 1.103h78.896a.551.551 0 1 0 0-1.103z" mask="url(#b)"/>
    </g>
</svg>
