<svg xmlns="http://www.w3.org/2000/svg" width="140" height="82" viewBox="0 0 140 82">
    <g fill="none" fill-rule="evenodd">
        <path fill="#FFF" fill-rule="nonzero" d="M40.334 76.59c.027.835.33 1.676.332 1.684l.027.075-1.891.002.016-.069c.001-.005.126-.54.145-.866.016-.261.004-.391-.005-.486l-.006-.073a1.46 1.46 0 0 0-.009-.083 3.556 3.556 0 0 1-3.004 1.676c-2.069 0-3.459-1.447-3.459-3.6 0-2.093 1.438-3.5 3.578-3.5.007 0 .684.002 1.529.124.709.103 1.32.318 1.426.357l.913-.183.4-.046v3.299c0 .035 0 .09-.002.16-.004.296-.011.846.01 1.528zm-1.88-3.564a3.673 3.673 0 0 0-.81-.6c-.198-.104-.691-.365-1.56-.365-.097 0-.2.003-.308.01-1.078.073-1.803 1.054-1.803 2.442 0 1.506.809 2.517 2.013 2.517 1.36 0 2.467-1.13 2.467-2.517v-1.487zm-3.36-3.095c-.618 0-1.12-.319-1.12-.71 0-.392.502-.71 1.12-.71.617 0 1.12.318 1.12.71 0 .391-.503.71-1.12.71zm3.732 0c-.617 0-1.12-.319-1.12-.71 0-.392.503-.71 1.12-.71.618 0 1.12.318 1.12.71 0 .391-.502.71-1.12.71zm-28.373 0c-.617 0-1.12-.319-1.12-.71 0-.392.503-.71 1.12-.71.618 0 1.12.318 1.12.71 0 .391-.502.71-1.12.71zm3.733 0c-.617 0-1.12-.319-1.12-.71 0-.392.503-.71 1.12-.71.618 0 1.12.318 1.12.71 0 .391-.502.71-1.12.71zm-9.13-2.84c.847 0 1.5.057 1.993.174l.044.01v1.353l-.09-.051c-.533-.304-1.316-.508-1.946-.508-.955 0-1.46.55-1.46 1.59v1.396H6.61v.979H3.596c-.001.432-.01 3.33-.002 3.967.008.677.35 1.66.353 1.669l.025.07H1.867l.013-.063c.001-.008.148-.746.149-1.24.002-1.438.003-6.202.003-6.731l.001-.047h-.001v-.001c0-1.656 1.074-2.567 3.025-2.567zm6.89 4.26c2.457 0 4.107 1.426 4.107 3.55 0 2.123-1.65 3.55-4.106 3.55-2.457 0-4.107-1.427-4.107-3.55 0-2.124 1.65-3.55 4.107-3.55zm2.614 3.194c0-1.486-1.05-2.484-2.613-2.484s-2.614.998-2.614 2.484c0 1.487 1.05 2.485 2.614 2.485 1.563 0 2.613-.998 2.613-2.485zm4.61-1.618c.687-.99 1.76-1.576 2.9-1.576h.703v1.429h-1.21c-1.416 0-2.367.872-2.367 2.171 0 .01-.021.932-.021 1.694 0 .752.348 1.72.351 1.73l.028.075h-2.007l.013-.067a7.6 7.6 0 0 0 .139-1.297v-5.634h1.377l.095 1.475zm9.006 1.36c1.422.306 2.81.713 2.81 2.011 0 1.388-1.392 2.152-3.92 2.152-.722 0-1.65-.168-2.757-.502l-.042-.012v-1.439l.093.054a6.1 6.1 0 0 0 2.955.79c1.155 0 1.932-.355 1.932-.883 0-.578-.881-.815-1.945-1.044-1.469-.315-3.035-.769-3.035-2.17 0-1.239 1.312-1.893 3.796-1.893.735 0 1.49.083 2.378.26l.048.01v1.483l-.094-.053c-.655-.376-1.596-.59-2.582-.59-1.046 0-1.806.312-1.806.742 0 .618 1.102.855 2.169 1.085zm21.259 3.538c.322.247.78.516.784.519l.181.106h-2.311l-.018-.025c0-.002-.117-.167-.555-.645-.441-.48-3.02-2.913-3.046-2.938l-.043-.04 3.541-3.451h1.962l-3.73 3.447c.262.276 1.76 1.843 2.228 2.224.425.347.764.616 1.007.803zm-5.462-1.834a3.49 3.49 0 0 0 .406 1.67l.048.08h-2.24l.011-.064c.002-.008.156-.842.156-1.252v-9.334h1.63v.054c0 .079.001 7.871-.01 8.846zm9.532-3.064c.688-.99 1.764-1.576 2.91-1.576h.705v1.429h-1.215c-1.42 0-2.375.872-2.375 2.171 0 .009-.008.862 0 1.689.008.819.296 1.728.3 1.737l.023.073h-1.96l.009-.063c.001-.01.126-.973.126-1.3v-5.635h1.382l.095 1.475zm6.228-5.126c.618 0 1.12.478 1.12 1.065s-.502 1.065-1.12 1.065c-.617 0-1.12-.478-1.12-1.065s.503-1.065 1.12-1.065zm.79 8.899c.007.796.302 1.668.305 1.677l.025.073h-2.24l.013-.067c.002-.009.172-.88.17-1.238-.004-.368 0-.5 0-.5V71.35h1.726v3.651c0 .01-.004.893.002 1.698zm9.697-.104a5.543 5.543 0 0 0 .31 1.778l.03.076h-2.041l.01-.064c0-.009.128-.865.128-1.3v-3.451c0-.754-.706-1.26-1.757-1.26-1.57 0-2.847 1.2-2.847 2.677 0 .09.004.615 0 1.602-.003 1.086.258 1.712.26 1.719l.033.077h-2l.01-.064c.002-.008.126-.83.126-1.3v-5.634h1.445l.102 1.433a3.68 3.68 0 0 1 2.992-1.534c1.918 0 3.207.836 3.207 2.082 0 .021-.019 2.14-.008 3.163zm10.046-5.01v7.054c0 2.01-1.825 3.36-4.542 3.36-.786 0-2.515-.107-3.292-.254l-.048-.009V80.21l.093.051c.692.38 2.415.737 3.247.737 1.75 0 2.927-.947 2.927-2.357v-1.936c-.703.886-1.801 1.41-2.977 1.41-2.166 0-3.62-1.378-3.62-3.43 0-1.994 1.504-3.333 3.745-3.333h.002c.008 0 .854.028 1.55.111.646.077 1.422.31 1.54.347l1.375-.223zm-1.493 1.445c-.12-.09-.725-.53-1.18-.702a4.314 4.314 0 0 0-1.005-.236 6.434 6.434 0 0 0-.664-.032h-.058c-1.388 0-2.32.986-2.32 2.453 0 1.505.944 2.516 2.349 2.516 1.587 0 2.878-1.173 2.878-2.615v-1.384zm57.485 5.251c.001-.005.126-.54.145-.866.016-.261.004-.391-.005-.486l-.006-.073a1.272 1.272 0 0 0-.009-.083 3.556 3.556 0 0 1-3.004 1.676c-2.069 0-3.459-1.447-3.459-3.6 0-2.093 1.438-3.5 3.578-3.5.007 0 .684.002 1.529.124.709.103 1.32.318 1.426.357l.913-.183.4-.046v3.299c0 .035 0 .09-.002.16-.004.296-.011.846.01 1.528.027.835.33 1.677.332 1.685l.027.075-1.891.002.016-.069zm-.365-5.256a3.664 3.664 0 0 0-.808-.6c-.199-.104-.692-.365-1.56-.365-.098 0-.201.003-.31.01-1.077.073-1.802 1.054-1.802 2.442 0 1.506.809 2.517 2.013 2.517 1.36 0 2.467-1.13 2.467-2.517v-1.487zm-22.385 3.563c.027.835.328 1.677.331 1.685l.028.075-1.892.002.016-.069c.002-.005.126-.54.145-.866.016-.261.004-.391-.005-.486l-.006-.073a1.273 1.273 0 0 0-.008-.083 3.556 3.556 0 0 1-3.004 1.676c-2.07 0-3.46-1.447-3.46-3.6 0-2.093 1.438-3.5 3.578-3.5.007 0 .684.002 1.529.124.709.103 1.32.318 1.426.357l.913-.183.4-.046v3.299c0 .035 0 .09-.002.16-.004.296-.011.846.01 1.528zm-1.881-3.563a3.664 3.664 0 0 0-.809-.6c-.198-.104-.691-.365-1.56-.365-.098 0-.2.003-.309.01-1.078.073-1.802 1.054-1.802 2.442 0 1.506.808 2.517 2.012 2.517 1.36 0 2.468-1.13 2.468-2.517v-1.487zm-3.36-3.095c-.618 0-1.12-.319-1.12-.71 0-.392.502-.71 1.12-.71.617 0 1.12.318 1.12.71 0 .391-.503.71-1.12.71zm3.733 0c-.618 0-1.12-.319-1.12-.71 0-.392.502-.71 1.12-.71.617 0 1.12.318 1.12.71 0 .391-.503.71-1.12.71zM103.834 76c.002.838.297 1.66.3 1.669l.026.071h-2.02l.007-.06c.002-.01.122-.893.122-1.255V73.1c0-.727-.703-1.215-1.75-1.215-1.563 0-2.835 1.202-2.835 2.679v1.428c0 .827.26 1.672.262 1.68l.022.07h-2.021l.01-.064c.002-.009.162-.952.162-1.252v-9.334h1.565v5.292a3.676 3.676 0 0 1 2.956-1.486c1.91 0 3.194.806 3.194 2.007V76zm14.11-.014c.004.895.364 1.672.367 1.68l.036.074h-2.24l.009-.061c.001-.01.158-1.031.158-1.322V67.09h1.667v7.722c0 .16-.002.446.002 1.173zm7.733-2.084c1.58.32 3.123.748 3.123 2.111 0 1.457-1.547 2.26-4.356 2.26-.803 0-1.834-.177-3.064-.527l-.047-.013v-1.511l.104.056c.97.528 2.166.83 3.284.83 1.283 0 2.146-.373 2.146-.927 0-.607-.979-.856-2.162-1.096-1.631-.331-3.372-.808-3.372-2.28 0-1.3 1.459-1.987 4.218-1.987.817 0 1.657.087 2.643.274l.053.01v1.558l-.104-.057c-.728-.394-1.774-.62-2.869-.62-1.163 0-2.007.328-2.007.78 0 .65 1.225.898 2.41 1.14zM89.971 75.33v2.943h-1.507V75.33h-3.015V73.86h3.015v-2.943h1.507v2.943h3.015v1.471H89.97z"/>
        <path fill="#FFFFFE" d="M0 61.5V45h140v16.5H0zm48.569-11.092a4.303 4.303 0 0 1 1.778.261l.436-1.834c-.378-.177-1.217-.38-2.322-.38-2.853 0-5.215 1.623-5.215 4.54 0 2.436 1.746 4.287 5.005 4.287 1.147 0 2.028-.202 2.419-.38l-.382-1.794c-.57.123-.977.17-1.72.187-1.543.035-2.51-.593-2.51-2.305 0-1.902 1.104-2.507 2.51-2.582zm-15.767-.03a3.59 3.59 0 0 1 1.644.294l.51-1.837c-.377-.177-1.216-.38-2.321-.38-2.853 0-5.215 1.623-5.215 4.54 0 2.436 1.746 4.287 5.005 4.287 1.146 0 2.028-.202 2.419-.38l-.488-1.83c-.42.152-1.092.255-1.793.298-1.37.084-2.4-.69-2.4-2.402 0-1.901 1.206-2.493 2.64-2.59zm27.024 6.904h3.015v-8.827h-3.015v8.827zm-44.139-2.065l.687 2.033 2.756.032-3.072-8.827h-3.782l-2.943 8.827 2.738-.032.63-2.017 2.986-.016zm-1.979-3.264c.167-.49.264-.79.415-1.292h.143c.152.502.278.79.46 1.292l.636 1.651h-2.26l.606-1.65zm97.328-.307l-1.78-3.186-3.459-.005v8.827h2.6v-2.659c0-1.44-.007-2.102-.065-3.268l.044-.013c.53 1.052 1.02 1.886 1.496 2.703.476.818 1.811 3.237 1.811 3.237h3.158v-8.827h-2.504v2.567c.046 1.442.052 1.557.13 2.97h-.044c-.515-.9-.798-1.36-1.387-2.346zm17.211 5.636V50.5h2.42v-2.045h-7.537V50.5h2.419v6.782h2.698zM96.53 50.297l.017-1.84-6.575-.002v8.82l6.783.007-.016-1.964-4.093-.001v-1.68h3.679v-1.799l-3.679.004v-1.545h3.884zM80.928 52.65c0-1.532-.637-2.6-1.65-3.27-.94-.629-2.14-.925-3.992-.925-1.114 0-2.593.105-3.402.221v8.485c.549.064 1.783.121 2.926.121 1.907 0 3.47-.36 4.497-1.12.94-.706 1.62-1.852 1.62-3.512zm-5.312 2.784c-.262 0-.538.032-.717-.005v-4.764c.262.002.487-.009.985 0 1.575.027 2.53.54 2.516 2.25 0 1.967-.878 2.532-2.784 2.519z"/>
        <path fill="#FFFFFE" fill-rule="nonzero" d="M97.154 26.015c5.822 4.759 9.905 13.735 9.905 13.735H95.213s-1.55-5.685-5.939-9.356c-3.747.643-8.987.628-8.987.628v8.728H69.626l.036-38.173.372-.019c.21-.014.557-.011.757-.026.577-.042 1.497-.045 2.661.006 4.904.056 13.863.522 20.84 2.833 2.874.951 5.97 3.023 7.222 6.374 1.616 4.325.244 11.395-4.36 15.27zM80.107 25.5c.733.014 8.187-.575 10.617-6.369 1.19-2.835.644-6.161-1.617-8.229-1.81-1.656-4.513-2.387-9-2.652V25.5zM0 39.75V1.5h29.198v5.728l-18.558.005v8.528l14.977-.001v5.81H10.73v12.439h18.468v5.741H0zM54.161 1.538l10.97-.038.003 32.738c-1.838 6.508-16.116 7.012-16.116 7.012-12.54 0-16.077-7.012-16.077-7.012v-32.7h10.763l-.06 31.118s.335 3.094 5.262 3.094 5.165-2.98 5.165-2.98l.09-31.232zM140 33.088c.014 0-.361 7.397-15.878 7.412-14.677.014-17.063-7.513-17.063-7.513V8.129C107.623 6.876 109.813 0 124.037 0 138.262 0 140 8.129 140 8.129v24.959zm-11.251-.74l.021-24.557s-1.004-2.541-5.044-2.541c-4.04 0-5.437 2.541-5.437 2.541l.197 24.443s.83 3.126 5.044 3.013c4.214-.114 5.219-2.9 5.219-2.9z"/>
    </g>
</svg>
