<?xml version="1.0" encoding="UTF-8"?>
<svg width="43px" height="51px" viewBox="0 0 43 51" version="1.1" xmlns="http://www.w3.org/2000/svg" xmlns:xlink="http://www.w3.org/1999/xlink">
    <!-- Generator: Sketch 55 (78076) - https://sketchapp.com -->
    <title>augmented-reality</title>
    <desc>Created with Sketch.</desc>
    <g id="Page-1" stroke="none" stroke-width="1" fill="none" fill-rule="evenodd">
        <g id="3725-landing" transform="translate(-425.000000, -576.000000)" stroke-width="2">
            <g id="augmented-reality" transform="translate(426.000000, 577.000000)">
                <path d="M35.2586605,13.8297872 C35.3295427,4.48404255 29.2506067,0 20.4474695,0 C11.6443322,0 5.56539625,4.48404255 5.63627838,13.8297872 L35.2586605,13.8297872 Z" id="Stroke-1" stroke="#323232"></path>
                <path d="M38.1222985,31.4424468 L27.4561251,34.0424468 C26.3315325,34.0424468 25.2280988,33.735 24.2632555,33.1530851 L22.624503,32.1647872 C21.2840902,31.3562766 19.6104256,31.3562766 18.2700128,32.1647872 L16.6312603,33.1530851 C15.6674749,33.735 14.5640412,34.0424468 13.4394486,34.0424468 L2.7722172,31.4424468 C1.34928492,31.0956383 0.346355691,29.8137234 0.346355691,28.341383 L0.346355691,17.0211702 C0.346355691,15.2584043 1.76717209,13.8296809 3.52018235,13.8296809 L37.3743334,13.8296809 C39.1273437,13.8296809 40.5481601,15.2584043 40.5481601,17.0211702 L40.5481601,28.341383 C40.5481601,29.8137234 39.5462888,31.0956383 38.1222985,31.4424468 Z" id="Stroke-3" stroke="#3F7FE7"></path>
                <path d="M34.2007183,35.106383 L34.2007183,36.1702128 C34.2007183,38.9425532 33.0041857,40.3797872 30.9306189,42.206383 C29.4431522,43.5170213 27.6721569,44.8510638 26.0979389,46.0117021 C22.7294508,48.4925532 18.1654881,48.4925532 14.7970001,46.0117021 C13.222782,44.8510638 11.4517868,43.5170213 9.96432,42.206383 C7.88969531,40.3797872 6.6942206,38.9425532 6.6942206,36.1702128 L6.6942206,35.106383" id="Stroke-5" stroke="#323232"></path>
                <path d="M9.86804726,42.5531915 L9.86804726,50" id="Stroke-7" stroke="#323232"></path>
                <path d="M31.0268917,42.5531915 L31.0268917,50" id="Stroke-9" stroke="#323232"></path>
                <path d="M17.2736428,17.0212766 L23.6212961,17.0212766" id="Stroke-11" stroke="#3F7FE7"></path>
                <path d="M3.52039394,17.0212766 L3.52039394,26.5957447" id="Stroke-13" stroke="#3F7FE7"></path>
                <path d="M37.374545,17.0212766 L37.374545,26.5957447" id="Stroke-15" stroke="#3F7FE7"></path>
            </g>
        </g>
    </g>
</svg>