<?xml version="1.0" encoding="UTF-8"?>
<svg width="52px" height="49px" viewBox="0 0 52 49" version="1.1" xmlns="http://www.w3.org/2000/svg" xmlns:xlink="http://www.w3.org/1999/xlink">
    <!-- Generator: Sketch 55 (78076) - https://sketchapp.com -->
    <title>blockchain_technology</title>
    <desc>Created with Sketch.</desc>
    <g id="Page-1" stroke="none" stroke-width="1" fill="none" fill-rule="evenodd">
        <g id="3725-landing" transform="translate(-560.000000, -577.000000)" stroke-width="2">
            <g id="blockchain_technology" transform="translate(561.000000, 578.000000)">
                <path d="M29.3478261,42.627907 C29.3478261,45.0423953 27.401087,47 25,47 C22.598913,47 20.6521739,45.0423953 20.6521739,42.627907 C20.6521739,40.2134186 22.598913,38.255814 25,38.255814 C27.401087,38.255814 29.3478261,40.2134186 29.3478261,42.627907 Z" id="Stroke-1" stroke="#1476F2"></path>
                <path d="M29.3478261,20.7674419 C29.3478261,23.1819302 27.401087,25.1395349 25,25.1395349 C22.598913,25.1395349 20.6521739,23.1819302 20.6521739,20.7674419 C20.6521739,18.3529535 22.598913,16.3953488 25,16.3953488 C27.401087,16.3953488 29.3478261,18.3529535 29.3478261,20.7674419 Z" id="Stroke-3" stroke="#1476F2"></path>
                <path d="M20.6521739,4.37209302 C20.6521739,6.7865814 18.7054348,8.74418605 16.3043478,8.74418605 C13.9032609,8.74418605 11.9565217,6.7865814 11.9565217,4.37209302 C11.9565217,1.95760465 13.9032609,0 16.3043478,0 C18.7054348,0 20.6521739,1.95760465 20.6521739,4.37209302 Z" id="Stroke-5" stroke="#323232"></path>
                <path d="M25,36.0697674 L25,25.1395349" id="Stroke-7" stroke="#1476F2"></path>
                <path d="M21.7391304,14.2093023 L18.4782609,8.74418605" id="Stroke-9" stroke="#323232"></path>
                <path d="M32.6086957,28.4186047 C32.6086957,30.833093 34.5554348,32.7906977 36.9565217,32.7906977 C39.3576087,32.7906977 41.3043478,30.833093 41.3043478,28.4186047 C41.3043478,26.0041163 39.3576087,24.0465116 36.9565217,24.0465116 C34.5554348,24.0465116 32.6086957,26.0041163 32.6086957,28.4186047 Z" id="Stroke-11" stroke="#1476F2"></path>
                <path d="M29.3478261,4.37209302 C29.3478261,6.7865814 31.2945652,8.74418605 33.6956522,8.74418605 C36.0967391,8.74418605 38.0434783,6.7865814 38.0434783,4.37209302 C38.0434783,1.95760465 36.0967391,0 33.6956522,0 C31.2945652,0 29.3478261,1.95760465 29.3478261,4.37209302 Z" id="Stroke-13" stroke="#323232"></path>
                <path d="M41.3043478,21.8604651 L43.4782609,18.5813953" id="Stroke-15" stroke="#323232"></path>
                <path d="M30.4347826,37.1627907 L34.2706522,31.6976744" id="Stroke-17" stroke="#1476F2"></path>
                <path d="M50,14.2093023 C50,16.6237907 48.0532609,18.5813953 45.6521739,18.5813953 C43.251087,18.5813953 41.3043478,16.6237907 41.3043478,14.2093023 C41.3043478,11.794814 43.251087,9.8372093 45.6521739,9.8372093 C48.0532609,9.8372093 50,11.794814 50,14.2093023 Z" id="Stroke-19" stroke="#323232"></path>
                <path d="M17.3913043,28.4186047 C17.3913043,30.833093 15.4445652,32.7906977 13.0434783,32.7906977 C10.6423913,32.7906977 8.69565217,30.833093 8.69565217,28.4186047 C8.69565217,26.0041163 10.6423913,24.0465116 13.0434783,24.0465116 C15.4445652,24.0465116 17.3913043,26.0041163 17.3913043,28.4186047 Z" id="Stroke-21" stroke="#1476F2"></path>
                <path d="M8.69565217,21.8604651 L6.52173913,18.5813953" id="Stroke-23" stroke="#323232"></path>
                <path d="M19.5652174,37.1627907 L15.7293478,31.6976744" id="Stroke-25" stroke="#1476F2"></path>
                <path d="M0,14.2093023 C0,16.6237907 1.94673913,18.5813953 4.34782609,18.5813953 C6.74891304,18.5813953 8.69565217,16.6237907 8.69565217,14.2093023 C8.69565217,11.794814 6.74891304,9.8372093 4.34782609,9.8372093 C1.94673913,9.8372093 0,11.794814 0,14.2093023 Z" id="Stroke-27" stroke="#323232"></path>
                <path d="M28.2608696,14.2093023 L31.5217391,8.74418605" id="Stroke-29" stroke="#323232"></path>
            </g>
        </g>
    </g>
</svg>