<svg xmlns="http://www.w3.org/2000/svg" width="52" height="46" viewBox="0 0 52 46">
    <g fill="none" fill-rule="evenodd" stroke-width="2">
        <path stroke="#323232" d="M39.044 30.636h4.347c4.203 0 7.61-3.44 7.61-7.683 0-4.244-3.407-7.684-7.61-7.684-.807 0-1.584.129-2.315.365.09-.474.142-.962.142-1.463 0-4.244-3.407-7.684-7.61-7.684a7.53 7.53 0 0 0-4.969 1.874C27.158 4.078 23.132 1 18.385 1c-6.003 0-10.87 4.915-10.87 10.979 0 1.158.179 2.272.508 3.32C4.096 15.602 1 18.91 1 22.953c0 4.242 3.407 7.683 7.609 7.683h3.26M8.022 15.292a7.524 7.524 0 0 1 4.605 1.135M28.658 8.354c.278.802.466 1.647.552 2.522M41.08 15.635a7.705 7.705 0 0 1-.95 2.497"/>
        <path stroke="#3F7FE7" d="M33.609 44.906H17.304c-1.8 0-3.26-1.474-3.26-3.293v-1.098c0-1.818 1.46-3.293 3.26-3.293H33.61c1.8 0 3.26 1.475 3.26 3.293v1.098c0 1.819-1.46 3.293-3.26 3.293zM33.609 37.222H17.304c-1.8 0-3.26-1.474-3.26-3.293v-1.097c0-1.819 1.46-3.293 3.26-3.293H33.61c1.8 0 3.26 1.474 3.26 3.293v1.097c0 1.82-1.46 3.293-3.26 3.293zM33.609 29.539H17.304c-1.8 0-3.26-1.474-3.26-3.293v-1.098c0-1.819 1.46-3.293 3.26-3.293H33.61c1.8 0 3.26 1.474 3.26 3.293v1.098c0 1.819-1.46 3.293-3.26 3.293z"/>
    </g>
</svg>
