<svg xmlns="http://www.w3.org/2000/svg" width="22" height="21" viewBox="0 0 22 21">
    <path fill="#5E7283" fill-rule="evenodd" d="M18.438 17.566h-3.15v-5.07c0-1.273-.455-2.142-1.595-2.142-.87 0-1.388.586-1.615 1.152-.084.202-.104.485-.104.768v5.292h-3.15s.041-8.587 0-9.476h3.15v1.343c.418-.645 1.165-1.565 2.838-1.565 2.073 0 3.626 1.354 3.626 4.265v5.433zM5.507 6.796h-.021c-1.057 0-1.74-.727-1.74-1.637 0-.929.704-1.637 1.782-1.637 1.077 0 1.74.708 1.76 1.637 0 .91-.683 1.638-1.781 1.638zm-1.575 10.77h3.15V8.09h-3.15v9.476zM20.072 0H2.3C1.45 0 .76.673.76 1.504V19.48c0 .83.689 1.503 1.54 1.503h17.77c.851 0 1.542-.673 1.542-1.503V1.504c0-.83-.69-1.504-1.542-1.504z" opacity=".595"/>
</svg>
