<svg xmlns="http://www.w3.org/2000/svg" width="52" height="52" viewBox="0 0 52 52">
    <g fill="none" fill-rule="evenodd" stroke-linejoin="round" stroke-width="2">
        <path stroke="#323232" d="M28.907 7.977V2.163h-9.302v5.26a18.488 18.488 0 0 0-4.785 1.982l-3.72-3.72-6.578 6.578 3.72 3.72a18.488 18.488 0 0 0-1.982 4.784H1v9.303h5.26a18.488 18.488 0 0 0 1.982 4.785l-3.72 3.72 6.578 6.577 3.72-3.72a18.488 18.488 0 0 0 4.785 1.982v5.26h9.302V42.86"/>
        <path stroke="#3F7FE7" d="M31.233 12.628h1.162l5.814-5.814M38.21 45.186l-6.977-6.977h-6.977c-7.064 0-12.79-5.726-12.79-12.79 0-7.064 5.726-12.791 12.79-12.791"/>
        <path stroke="#3F7FE7" d="M25.419 31.233h-1.163a5.815 5.815 0 0 1 0-11.628h9.302l4.651-4.652h5.814M44.023 37.047h-4.65l-5.815-5.814h-1.163M44.023 4.488a3.488 3.488 0 1 1-6.976 0 3.488 3.488 0 0 1 6.976 0zM51 14.953a3.488 3.488 0 1 1-6.976 0 3.488 3.488 0 0 1 6.976 0zM51 25.419a3.488 3.488 0 1 1-6.976 0 3.488 3.488 0 0 1 6.976 0zM51 37.047a3.488 3.488 0 1 1-6.976 0 3.488 3.488 0 0 1 6.976 0zM44.023 47.512a3.488 3.488 0 1 1-6.976 0 3.488 3.488 0 0 1 6.976 0zM32.395 25.419H42.86M23.093 25.419h2.326M27.744 25.419h2.326M27.744 31.233h2.326M26.581 12.628h2.326"/>
    </g>
</svg>
