<svg xmlns="http://www.w3.org/2000/svg" width="27" height="18" viewBox="0 0 27 18">
    <path fill="#5E7283" fill-rule="evenodd" d="M26.436 2.81C27 4.817 27 9 27 9s0 4.184-.564 6.19c-.31 1.106-1.226 1.977-2.387 2.273C21.943 18 13.5 18 13.5 18s-8.443 0-10.549-.537C1.79 17.167.875 16.296.564 15.189 0 13.184 0 9 0 9s0-4.184.564-6.19C.874 1.705 1.79.834 2.951.538 5.057 0 13.5 0 13.5 0s8.443 0 10.549.537c1.161.296 2.076 1.167 2.387 2.274zM10.739 12.824l7.056-3.798-7.056-3.8v7.598z" opacity=".595"/>
</svg>
