<svg xmlns="http://www.w3.org/2000/svg" width="111" height="109" viewBox="0 0 111 109">
    <defs>
        <linearGradient id="a" x1="92.51%" x2="22.313%" y1="29.733%" y2="77.941%">
            <stop offset="0%" stop-color="#17CA8E"/>
            <stop offset="100%" stop-color="#2A82F2"/>
        </linearGradient>
    </defs>
    <g fill="none" fill-rule="evenodd">
        <path fill="url(#a)" fill-opacity=".6" d="M109 98.8c0 4.537-3.651 8.2-8.175 8.2H8.175C3.651 107 0 103.337 0 98.8V44.133c0-3.936 3.052-6.15 5.45-8.2C7.848 33.883 19.075 25 19.075 25v32.8l16.35 16.4c5.45 4.674 9.292 5.467 13.625 5.467h10.9c4.333 0 8.175-.793 13.625-5.467l16.35-16.4V25s11.227 8.883 13.625 10.933c2.398 2.05 5.45 4.264 5.45 8.2V98.8z" opacity=".4" transform="translate(1 1)"/>
        <path fill="#FFF" d="M91 1v57.207L74.846 74.552C69.462 79.21 65.666 80 61.385 80h-10.77c-4.28 0-8.077-.79-13.461-5.448L21 58.207V1h70z"/>
        <path stroke="#1476F2" d="M9 97l25-25" opacity=".3"/>
        <path stroke="#323232" d="M20.075 58.615V1h70.85v57.615" opacity=".2"/>
        <path stroke="#1476F2" d="M20.075 25.692S8.835 34.61 6.45 36.667C4.066 38.724 1 40.952 1 44.897V99.77C1 104.315 4.66 108 9.175 108H55.5M101.825 97.026L77.3 72.333M90.925 25.692s11.24 8.917 13.625 10.975c2.384 2.057 5.45 4.285 5.45 8.23V99.77c0 4.546-3.66 8.231-8.175 8.231H55.5" opacity=".3"/>
        <path stroke="#1476F2" d="M101.825 47.641l-27.25 27.436c-5.45 4.686-9.29 5.487-13.625 5.487h-10.9c-4.335 0-8.175-.801-13.625-5.487L9.175 47.64" opacity=".3"/>
    </g>
</svg>
