<svg xmlns="http://www.w3.org/2000/svg" width="184" height="40" viewBox="0 0 184 40">
    <g fill="#FFF" fill-rule="nonzero">
        <path d="M39.365 20.019c.106 10.614-8.681 19.855-19.742 19.767C8.965 39.688.093 30.733.23 19.735.366 9.212 8.91.193 19.89.233c10.98.04 19.574 9.195 19.475 19.786zm-26.239 6.26h-2.118a.8.8 0 0 0-.555.177c-.277.237-.444.58-.46.946a.403.403 0 0 0 .07.305c.063.088.159.146.265.16.146.032.296.043.445.033h9.6c.358-.005.686-.197.869-.507.095-.153.166-.32.21-.495.778-3.007 1.558-6.003 2.341-8.991l.882-3.381c.152-.584.528-1.014 1.267-.986.836.032 1.672 0 2.508 0 .17.017.34-.028.479-.126.278-.22.453-.547.486-.902a.286.286 0 0 0-.056-.245.28.28 0 0 0-.225-.104 3.564 3.564 0 0 0-.387-.012h-7.521a.86.86 0 0 0-.657.305 1.612 1.612 0 0 0-.336.632c-.12.403-.23.81-.345 1.217-.571 2.07-1.141 4.14-1.71 6.211-.395 1.444-.777 2.889-1.178 4.33a1.83 1.83 0 0 1-1.842 1.414l-2.032.02zm3.455-14.24h-1.594a.74.74 0 0 0-.758.52c-.057.16-.124.318-.17.48-.18.628-.355 1.256-.53 1.884-.829 2.979-1.654 5.957-2.475 8.935a1.514 1.514 0 0 0-.05.537.383.383 0 0 0 .317.386c.087.021.176.03.265.028H14.6c.327.01.63-.17.779-.465.108-.192.189-.399.241-.614.154-.54.307-1.083.461-1.628.743-2.67 1.487-5.338 2.231-8.004.137-.448.25-.902.341-1.36.08-.466-.096-.698-.562-.698-.506-.003-1.015 0-1.51 0zM155.654 4.347h1v31.342h-1zM47.9 12.16a.746.746 0 0 1 .2-.527.717.717 0 0 1 .548-.214.728.728 0 0 1 .55.214c.138.14.212.33.208.527a.701.701 0 0 1-.207.521.735.735 0 0 1-.55.212.724.724 0 0 1-.549-.212.725.725 0 0 1-.2-.52zm1.285 12.847H48.09V15.04h1.094v9.967zM53.196 15.04l.035 1.702a3.955 3.955 0 0 1 1.382-1.395 3.583 3.583 0 0 1 1.842-.484c1.056 0 1.844.301 2.363.904.516.6.778 1.505.785 2.707v6.542h-1.087v-6.56c0-.89-.193-1.554-.56-1.989-.366-.434-.964-.653-1.766-.653a2.747 2.747 0 0 0-1.791.642 3.756 3.756 0 0 0-1.152 1.728v6.825h-1.084v-9.97h1.033zM64.112 12.486v2.558h2.043v.903h-2.043v6.644a2.11 2.11 0 0 0 .295 1.237c.198.27.53.405.99.405.297-.011.593-.042.887-.091l.044.895a3.569 3.569 0 0 1-1.168.154c-.748 0-1.292-.22-1.633-.658-.34-.44-.511-1.086-.511-1.94v-6.651h-1.815v-.902h1.815V12.48l1.096.005zM72.241 25.19a4.25 4.25 0 0 1-2.277-.625 4.255 4.255 0 0 1-1.582-1.746 5.482 5.482 0 0 1-.567-2.51v-.397a5.905 5.905 0 0 1 .553-2.589 4.43 4.43 0 0 1 1.536-1.809 3.774 3.774 0 0 1 2.135-.66c1.199 0 2.149.413 2.85 1.239.702.826 1.054 1.955 1.055 3.386v.619h-7.042v.211a4.212 4.212 0 0 0 .96 2.824 3.058 3.058 0 0 0 2.423 1.127 3.542 3.542 0 0 0 1.548-.32c.48-.245.896-.598 1.218-1.033l.69.526c-.807 1.172-1.974 1.758-3.5 1.758zm-.202-9.397a2.714 2.714 0 0 0-2.073.914 4.235 4.235 0 0 0-1.027 2.449h5.923v-.119a3.69 3.69 0 0 0-.813-2.34 2.509 2.509 0 0 0-2.01-.904zM79.293 25.007h-1.096V10.856h1.096zM83.48 25.007h-1.095V10.856h1.094zM90.273 25.19a4.219 4.219 0 0 1-3.86-2.371 5.482 5.482 0 0 1-.566-2.51v-.397a5.905 5.905 0 0 1 .552-2.589 4.407 4.407 0 0 1 1.539-1.809 3.762 3.762 0 0 1 2.134-.66c1.198 0 2.148.413 2.851 1.239.704.826 1.054 1.955 1.053 3.386v.619h-7.047v.211a4.196 4.196 0 0 0 .963 2.824 3.05 3.05 0 0 0 2.422 1.127 3.54 3.54 0 0 0 1.546-.32c.48-.245.896-.598 1.218-1.033l.69.526c-.807 1.172-1.972 1.758-3.495 1.758zm-.2-9.397a2.72 2.72 0 0 0-2.073.914 4.207 4.207 0 0 0-1.025 2.449h5.92v-.119a3.69 3.69 0 0 0-.812-2.34 2.504 2.504 0 0 0-2.015-.904h.004zM99.747 24.26a2.867 2.867 0 0 0 1.911-.648 2.29 2.29 0 0 0 .834-1.682h1.05a3.13 3.13 0 0 1-.566 1.663 3.53 3.53 0 0 1-1.382 1.163 4.112 4.112 0 0 1-1.843.423c-1.295 0-2.322-.454-3.078-1.363-.757-.908-1.136-2.13-1.136-3.667v-.319a6.27 6.27 0 0 1 .51-2.607 3.97 3.97 0 0 1 1.464-1.75 4.014 4.014 0 0 1 2.231-.62 3.787 3.787 0 0 1 2.679.977 3.579 3.579 0 0 1 1.126 2.572h-1.05a2.677 2.677 0 0 0-.837-1.894 2.624 2.624 0 0 0-1.927-.715 2.71 2.71 0 0 0-2.303 1.08c-.546.718-.819 1.726-.817 3.022v.324c0 1.27.272 2.263.817 2.976.545.714 1.317 1.069 2.317 1.065zM107.42 12.486v2.558h2.043v.903h-2.043v6.644a2.11 2.11 0 0 0 .295 1.237c.198.27.528.405.99.405.296-.011.592-.042.884-.091l.046.895a3.569 3.569 0 0 1-1.167.154c-.748 0-1.292-.22-1.633-.658-.34-.44-.511-1.086-.511-1.94v-6.651h-1.815v-.902h1.815V12.48l1.096.005zM116.662 22.253a.861.861 0 0 0-.48-.77 5.342 5.342 0 0 0-1.538-.502c-2.347-.497-3.52-1.505-3.52-3.023a2.749 2.749 0 0 1 1.088-2.214c.728-.592 1.678-.889 2.851-.89 1.253 0 2.256.298 3.008.895a2.826 2.826 0 0 1 1.126 2.325h-2.637a1.3 1.3 0 0 0-.364-.944c-.24-.257-.621-.386-1.142-.386a1.564 1.564 0 0 0-1.03.305.962.962 0 0 0-.365.774c0 .297.16.57.416.714.437.236.91.394 1.4.465.564.108 1.12.257 1.66.447 1.395.516 2.091 1.41 2.09 2.681a2.612 2.612 0 0 1-1.152 2.207c-.767.56-1.765.84-2.994.842a5.168 5.168 0 0 1-2.201-.446 3.692 3.692 0 0 1-1.51-1.226 2.872 2.872 0 0 1-.549-1.681h2.501c0 .423.192.824.52 1.088.378.268.834.4 1.295.377a1.88 1.88 0 0 0 1.151-.291.9.9 0 0 0 .376-.747zM120.512 19.93a5.956 5.956 0 0 1 .564-2.644 4.171 4.171 0 0 1 1.628-1.795 4.703 4.703 0 0 1 2.469-.638c1.331 0 2.418.412 3.26 1.235.844.824 1.313 1.941 1.41 3.354l.019.681c0 1.53-.423 2.758-1.267 3.682-.844.924-1.979 1.389-3.404 1.395-1.423 0-2.559-.46-3.408-1.381-.849-.921-1.273-2.174-1.271-3.759v-.13zm2.634.19c0 .948.177 1.672.53 2.173.36.47.917.746 1.506.746.59 0 1.146-.275 1.506-.746.356-.496.535-1.288.537-2.377 0-.93-.18-1.649-.537-2.158a1.745 1.745 0 0 0-1.515-.767 1.72 1.72 0 0 0-1.497.762c-.351.514-.528 1.303-.53 2.368zM132.206 25.007v-8.016h-1.47V15.04h1.47v-.854c0-1.12.318-1.987.953-2.602.636-.616 1.526-.926 2.67-.93a6.16 6.16 0 0 1 1.34.18l-.026 2.05a3.324 3.324 0 0 0-.803-.084c-.992 0-1.488.474-1.488 1.42v.81h1.962v1.951h-1.962v8.017l-2.646.009zM141.34 12.588v2.452h1.687v1.95h-1.688v4.977c-.026.28.049.561.21.791.14.16.407.233.803.233.26.002.519-.019.774-.063v2.016a5.34 5.34 0 0 1-1.596.233c-1.842 0-2.785-.943-2.828-2.828V16.99h-1.45V15.04h1.441v-2.452h2.646zM172.039 15.814h-1.946l-.34 1.112h-1.519l2.16-5.952h1.339l2.176 5.952h-1.525l-.345-1.112zm-1.612-1.107h1.266l-.635-2.065-.631 2.065zM176.778 14.81h-.769v2.104h-1.42v-5.951h2.318a2.568 2.568 0 0 1 1.64.465 1.6 1.6 0 0 1 .59 1.328c.013.36-.073.715-.25 1.028-.19.292-.46.523-.778.663l1.23 2.402v.06h-1.522l-1.039-2.1zm-.769-1.103h.898a.797.797 0 0 0 .608-.216.83.83 0 0 0 .205-.6.845.845 0 0 0-.207-.605.788.788 0 0 0-.606-.219h-.898v1.64zM170.111 25.858h2.474v1.102h-3.895v-5.95h1.421zM176.861 25.849h-1.948l-.339 1.111h-1.52l2.163-5.95h1.335l2.179 5.95h-1.527l-.343-1.111zm-1.612-1.107h1.267l-.636-2.065-.63 2.065zM179.406 26.96v-5.95h2.116c.76 0 1.336.139 1.732.42a1.4 1.4 0 0 1 .592 1.223c.008.278-.065.553-.21.789a1.222 1.222 0 0 1-.62.481c.283.068.534.232.71.465.168.239.255.526.246.819a1.58 1.58 0 0 1-.548 1.305c-.365.293-.907.441-1.626.446l-2.392.002zm1.42-3.472h.742c.234.02.468-.041.663-.172a.608.608 0 0 0 .198-.495.65.65 0 0 0-.214-.544 1.142 1.142 0 0 0-.69-.165h-.691l-.007 1.376zm0 .93v1.429h.922a.88.88 0 0 0 .592-.18.622.622 0 0 0 .207-.5c0-.495-.244-.746-.732-.748h-.988z"/>
    </g>
</svg>
