<svg xmlns="http://www.w3.org/2000/svg" width="128" height="128" viewBox="0 0 128 128">
  <g fill="#FFF" fill-rule="evenodd">
    <path d="M48,83.5 L54.8365385,44 L67.3973214,44.0271291 C72.3529323,44.0452153 76.0514988,44.9856821 78.4931319,46.8485577 C80.934765,48.7114333 82.0470478,51.3248458 81.8300137,54.6888736 C81.5587212,58.848693 79.2798978,61.7966946 74.9934753,63.532967 C76.5307998,64.0755522 77.7289907,65.0567122 78.5880838,66.4764766 C79.4471769,67.8962411 79.8134164,69.6008371 79.6868132,71.5903159 C79.4336068,75.406498 77.9279556,78.3454567 75.1698146,80.4072802 C72.4116735,82.4691037 68.6362419,83.5 63.8434066,83.5 L48,83.5 Z M60.2081044,66.7070742 L58.553228,76.1751374 L64.1146978,76.2022665 C65.8509702,76.2022665 67.2978422,75.7727264 68.4553571,74.9136332 C69.6128721,74.0545401 70.3001363,72.910607 70.5171703,71.4817995 C71.0235831,68.4614089 69.8660855,66.8788927 67.0446429,66.7342033 L60.2081044,66.7070742 Z M61.2661401,60.4673764 L65.6339286,60.4945055 C69.6671447,60.4040746 71.9278822,58.8577302 72.4162088,55.8554258 C72.8502769,52.8892938 71.3129754,51.3972071 67.8042582,51.3791209 L62.8667582,51.3519918 L61.2661401,60.4673764 Z"/>
    <path fill-rule="nonzero" d="M63.7754386,99.9298246 C44.0559663,99.9298246 28.0701754,83.9440337 28.0701754,64.2245614 C28.0701754,44.5050891 44.0559663,28.5192982 63.7754386,28.5192982 C83.4949109,28.5192982 99.4807018,44.5050891 99.4807018,64.2245614 C99.4807018,83.9440337 83.4949109,99.9298246 63.7754386,99.9298246 Z M63.7754386,98.5824561 C82.7507799,98.5824561 98.1333333,83.1999027 98.1333333,64.2245614 C98.1333333,45.2492201 82.7507799,29.8666667 63.7754386,29.8666667 C44.8000973,29.8666667 29.4175439,45.2492201 29.4175439,64.2245614 C29.4175439,83.1999027 44.8000973,98.5824561 63.7754386,98.5824561 Z" opacity=".8"/>
    <path fill-rule="nonzero" d="M63.7754386,109.810526 C38.5990054,109.810526 18.1894737,89.4009946 18.1894737,64.2245614 C18.1894737,39.0481282 38.5990054,18.6385965 63.7754386,18.6385965 C88.9518718,18.6385965 109.361404,39.0481282 109.361404,64.2245614 C109.361404,89.4009946 88.9518718,109.810526 63.7754386,109.810526 Z M63.7754386,108.463158 C88.2077408,108.463158 108.014035,88.6568636 108.014035,64.2245614 C108.014035,39.7922592 88.2077408,19.9859649 63.7754386,19.9859649 C39.3431364,19.9859649 19.5368421,39.7922592 19.5368421,64.2245614 C19.5368421,88.6568636 39.3431364,108.463158 63.7754386,108.463158 Z" opacity=".6"/>
    <path fill-rule="nonzero" d="M64,119.242105 C33.4906277,119.242105 8.75789474,94.5093723 8.75789474,64 C8.75789474,33.4906277 33.4906277,8.75789474 64,8.75789474 C94.5093723,8.75789474 119.242105,33.4906277 119.242105,64 C119.242105,94.5093723 94.5093723,119.242105 64,119.242105 Z M64,117.894737 C93.7652413,117.894737 117.894737,93.7652413 117.894737,64 C117.894737,34.2347587 93.7652413,10.1052632 64,10.1052632 C34.2347587,10.1052632 10.1052632,34.2347587 10.1052632,64 C10.1052632,93.7652413 34.2347587,117.894737 64,117.894737 Z" opacity=".4"/>
    <path fill-rule="nonzero" d="M64,127.775439 C28.7777979,127.775439 0.224561404,99.2222021 0.224561404,64 C0.224561404,28.7777979 28.7777979,0.224561404 64,0.224561404 C99.2222021,0.224561404 127.775439,28.7777979 127.775439,64 C127.775439,99.2222021 99.2222021,127.775439 64,127.775439 Z M64,126.42807 C98.4780711,126.42807 126.42807,98.4780711 126.42807,64 C126.42807,29.5219289 98.4780711,1.57192982 64,1.57192982 C29.5219289,1.57192982 1.57192982,29.5219289 1.57192982,64 C1.57192982,98.4780711 29.5219289,126.42807 64,126.42807 Z" opacity=".2"/>
  </g>
</svg>
