<svg xmlns="http://www.w3.org/2000/svg" width="18" height="18" viewBox="0 0 18 18">
    <g fill="none" fill-rule="evenodd" stroke="#323232" stroke-linejoin="round" opacity=".3">
        <path d="M9.263 13.035l-2.9 2.9a2.462 2.462 0 0 1-3.482 0l-1.16-1.16a2.462 2.462 0 0 1 0-3.481l4.351-4.351a2.462 2.462 0 0 1 3.481 0l1.161 1.16c.203.204.364.433.48.679"/>
        <path d="M8.393 4.622l2.901-2.901a2.462 2.462 0 0 1 3.481 0l1.16 1.16c.962.961.962 2.52 0 3.482l-4.35 4.35a2.462 2.462 0 0 1-3.482 0l-1.16-1.16a2.466 2.466 0 0 1-.481-.678"/>
    </g>
</svg>
