<svg xmlns="http://www.w3.org/2000/svg" width="230" height="50" viewBox="0 0 230 50">
    <g fill="#FFF" fill-rule="evenodd">
        <text font-family="Arial" font-size="10" font-weight="bold">
            <tspan x="210" y="22">IOT</tspan> <tspan x="210" y="33">LAB</tspan>
        </text>
        <path fill-rule="nonzero" d="M49.207 25.023c.132 13.268-10.853 24.82-24.678 24.71C11.206 49.61.115 38.416.288 24.669.458 11.515 11.138.24 24.862.29c13.726.05 24.469 11.494 24.345 24.732v.001zM16.408 32.85H13.76a1 1 0 0 0-.694.22 1.654 1.654 0 0 0-.576 1.184.504.504 0 0 0 .421.581c.182.04.369.053.555.041h12.001a1.282 1.282 0 0 0 1.085-.634c.12-.19.208-.4.262-.619.973-3.758 1.949-7.504 2.928-11.238l1.102-4.227c.19-.73.66-1.267 1.583-1.233 1.045.041 2.09 0 3.135 0a.883.883 0 0 0 .599-.157 1.63 1.63 0 0 0 .607-1.127.357.357 0 0 0-.069-.306.35.35 0 0 0-.282-.13 4.456 4.456 0 0 0-.483-.015h-9.402c-.315 0-.615.139-.82.38-.198.229-.341.5-.42.791-.15.503-.288 1.012-.432 1.52a5244.88 5244.88 0 0 0-2.136 7.765c-.495 1.806-.973 3.61-1.474 5.413a2.286 2.286 0 0 1-2.303 1.768l-2.539.023zm4.318-17.8h-1.992a.924.924 0 0 0-.947.649c-.072.2-.156.398-.213.601-.225.785-.443 1.57-.662 2.355a4841.69 4841.69 0 0 0-3.095 11.169 1.893 1.893 0 0 0-.063.671.478.478 0 0 0 .397.483c.109.026.22.038.331.035h3.768c.409.012.788-.214.973-.582a3.04 3.04 0 0 0 .303-.767l.575-2.035c.93-3.337 1.859-6.673 2.79-10.006.17-.56.312-1.127.426-1.7.1-.582-.121-.873-.703-.873-.633-.002-1.27 0-1.888 0zm173.841-9.617h1V44.61h-1V5.433zM59.875 15.2a.932.932 0 0 1 .25-.66c.18-.183.43-.28.685-.267a.91.91 0 0 1 .688.268.915.915 0 0 1 .26.66.877.877 0 0 1-.26.65.919.919 0 0 1-.688.265.905.905 0 0 1-.685-.264.906.906 0 0 1-.25-.651V15.2zm1.605 16.06h-1.367V18.8h1.367v12.46zm5.016-12.46l.043 2.127a4.944 4.944 0 0 1 1.727-1.744 4.48 4.48 0 0 1 2.303-.605c1.32 0 2.305.377 2.953 1.131.645.75.973 1.881.982 3.384v8.177h-1.359v-8.2c0-1.114-.242-1.942-.7-2.486-.457-.543-1.205-.817-2.207-.817a3.434 3.434 0 0 0-2.24.803 4.694 4.694 0 0 0-1.44 2.16v8.532h-1.355V18.799h1.293v.001zm13.644-3.192v3.197h2.553v1.128H80.14v8.305c-.039.542.09 1.082.369 1.547.247.337.662.506 1.237.506a8.529 8.529 0 0 0 1.109-.114l.054 1.12a4.448 4.448 0 0 1-1.46.191c-.934 0-1.614-.274-2.04-.822-.426-.549-.639-1.357-.639-2.425v-8.314h-2.268V18.8h2.268v-3.197l1.37.006v-.001zm10.162 15.88a5.312 5.312 0 0 1-2.847-.782 5.318 5.318 0 0 1-1.978-2.183 6.852 6.852 0 0 1-.708-3.136v-.497a7.38 7.38 0 0 1 .69-3.236 5.538 5.538 0 0 1 1.92-2.262 4.717 4.717 0 0 1 2.67-.825c1.498 0 2.686.516 3.563 1.55.877 1.032 1.316 2.443 1.318 4.232v.773h-8.802v.265a5.265 5.265 0 0 0 1.2 3.529c.74.91 1.856 1.43 3.028 1.41a4.427 4.427 0 0 0 1.935-.402 4.346 4.346 0 0 0 1.523-1.29l.863.657c-1.01 1.465-2.468 2.197-4.375 2.197zm-.254-11.747a3.393 3.393 0 0 0-2.59 1.143 5.294 5.294 0 0 0-1.284 3.06h7.403v-.147a4.613 4.613 0 0 0-1.016-2.925 3.136 3.136 0 0 0-2.513-1.13v-.001zm9.068 11.518h-1.37v-17.69h1.37v17.69zm5.234 0h-1.368v-17.69h1.367l.001 17.69zm8.491.229a5.274 5.274 0 0 1-4.824-2.965 6.852 6.852 0 0 1-.709-3.136v-.497a7.38 7.38 0 0 1 .691-3.236 5.509 5.509 0 0 1 1.923-2.262 4.703 4.703 0 0 1 2.669-.825c1.496 0 2.684.516 3.563 1.55.88 1.032 1.318 2.443 1.316 4.232v.773h-8.809v.265a5.245 5.245 0 0 0 1.204 3.529 3.813 3.813 0 0 0 3.028 1.41 4.425 4.425 0 0 0 1.931-.402 4.346 4.346 0 0 0 1.523-1.29l.864.657c-1.01 1.465-2.466 2.197-4.37 2.197zm-.25-11.747A3.399 3.399 0 0 0 110 20.884a5.259 5.259 0 0 0-1.281 3.06h7.4v-.147a4.613 4.613 0 0 0-1.015-2.925 3.13 3.13 0 0 0-2.52-1.13h.007v-.001zm12.093 10.585a3.584 3.584 0 0 0 2.389-.811 2.862 2.862 0 0 0 1.042-2.102h1.313a3.912 3.912 0 0 1-.709 2.078 4.412 4.412 0 0 1-1.727 1.454 5.14 5.14 0 0 1-2.303.529c-1.62 0-2.902-.568-3.848-1.704-.946-1.135-1.42-2.663-1.42-4.584v-.398a7.837 7.837 0 0 1 .637-3.259 4.962 4.962 0 0 1 1.83-2.189 5.018 5.018 0 0 1 2.79-.773 4.733 4.733 0 0 1 3.348 1.22 4.474 4.474 0 0 1 1.407 3.216h-1.312a3.346 3.346 0 0 0-1.046-2.367 3.28 3.28 0 0 0-2.409-.895 3.387 3.387 0 0 0-2.878 1.35c-.683.898-1.024 2.158-1.022 3.778v.404c0 1.59.34 2.83 1.022 3.721.681.892 1.646 1.335 2.896 1.332zm9.591-14.718v3.197h2.553v1.128h-2.553v8.305c-.039.542.09 1.082.369 1.547.247.337.66.506 1.237.506.37-.014.74-.052 1.106-.114l.057 1.12a4.451 4.451 0 0 1-1.46.191c-.934 0-1.614-.274-2.04-.822-.426-.549-.64-1.357-.64-2.425v-8.314h-2.267V18.8h2.268v-3.197l1.37.006v-.001zm11.552 12.209a1.077 1.077 0 0 0-.599-.962 6.678 6.678 0 0 0-1.923-.628c-2.934-.622-4.401-1.882-4.401-3.78a3.436 3.436 0 0 1 1.361-2.767c.91-.74 2.098-1.111 3.564-1.113 1.566 0 2.82.373 3.76 1.119a3.533 3.533 0 0 1 1.407 2.907H145.7c.014-.44-.15-.866-.455-1.18-.3-.322-.777-.483-1.427-.483a1.955 1.955 0 0 0-1.287.381c-.295.232-.465.59-.458.968 0 .37.2.712.521.893.545.294 1.137.49 1.75.58.705.135 1.399.322 2.076.559 1.742.645 2.613 1.763 2.61 3.352a3.265 3.265 0 0 1-1.439 2.759c-.959.7-2.206 1.05-3.742 1.052a6.46 6.46 0 0 1-2.752-.558 4.614 4.614 0 0 1-1.888-1.532 3.59 3.59 0 0 1-.685-2.102h3.126c.001.53.24 1.03.65 1.36.473.335 1.042.5 1.618.471.506.038 1.01-.09 1.44-.363.299-.214.475-.563.469-.933zm4.813-2.904a7.445 7.445 0 0 1 .705-3.305 5.214 5.214 0 0 1 2.035-2.245 5.879 5.879 0 0 1 3.086-.796c1.664 0 3.023.514 4.076 1.543 1.054 1.03 1.641 2.427 1.762 4.192l.023.852c0 1.913-.528 3.447-1.583 4.602-1.056 1.155-2.474 1.736-4.255 1.744-1.779 0-3.199-.576-4.26-1.727-1.061-1.15-1.591-2.717-1.59-4.697v-.163h.001zm3.293.238c0 1.184.22 2.09.662 2.715a2.371 2.371 0 0 0 1.883.933 2.37 2.37 0 0 0 1.882-.933c.446-.62.67-1.61.671-2.97 0-1.163-.224-2.062-.67-2.698a2.18 2.18 0 0 0-1.895-.96 2.15 2.15 0 0 0-1.87.954c-.44.641-.661 1.628-.663 2.96v-.001zm11.324 6.108v-10.02h-1.836v-2.44h1.836v-1.066c0-1.4.398-2.484 1.192-3.253.795-.77 1.907-1.157 3.336-1.163a7.7 7.7 0 0 1 1.676.227l-.032 2.56a4.155 4.155 0 0 0-1.004-.104c-1.24 0-1.86.592-1.86 1.776v1.012h2.453v2.439h-2.453v10.02l-3.308.012zm11.417-15.524V18.8h2.11v2.44h-2.11v6.22c-.032.35.06.701.262.989.176.2.51.29 1.005.29a5.32 5.32 0 0 0 .967-.078v2.52a6.675 6.675 0 0 1-1.995.29c-2.303 0-3.481-1.177-3.535-3.534v-6.698h-1.814V18.8h1.802v-3.064h3.308v-.001z"/>
    </g>
</svg>
