<svg xmlns="http://www.w3.org/2000/svg" xmlns:xlink="http://www.w3.org/1999/xlink" width="20" height="20" viewBox="0 0 20 20">
    <defs>
        <path id="a" d="M0 0h20v20H0z"/>
    </defs>
    <g fill="none" fill-rule="evenodd">
        <mask id="b" fill="#fff">
            <use xlink:href="#a"/>
        </mask>
        <path fill="#2F6EB0" d="M16.036 15.77h-2.394V12.02c0-.894-.017-2.044-1.245-2.044-1.246 0-1.437.974-1.437 1.98v3.812H8.566V8.062h2.298v1.053h.032c.32-.606 1.1-1.245 2.266-1.245 2.426 0 2.874 1.597 2.874 3.671v4.228zM5.866 7.007a1.39 1.39 0 1 1 .001-2.778 1.39 1.39 0 0 1 0 2.778zM4.668 15.77h2.396V8.062H4.668v7.707zM16.923 0H3.077A3.077 3.077 0 0 0 0 3.078v13.846C0 18.623 1.377 20 3.077 20h13.846c1.7 0 3.077-1.377 3.077-3.077V3.077C20 1.377 18.622 0 16.923 0z" mask="url(#b)"/>
    </g>
</svg>
