<?xml version="1.0" encoding="UTF-8"?>
<!DOCTYPE svg PUBLIC "-//W3C//DTD SVG 1.1//EN" "http://www.w3.org/Graphics/SVG/1.1/DTD/svg11.dtd">
<!-- Creator: CorelDRAW 2019 (64-Bit Evaluation Version) -->
<svg xmlns="http://www.w3.org/2000/svg" xml:space="preserve" width="13.818mm" height="3.6396mm" version="1.1" style="shape-rendering:geometricPrecision; text-rendering:geometricPrecision; image-rendering:optimizeQuality; fill-rule:evenodd; clip-rule:evenodd"
viewBox="0 0 93.89 24.73"
 xmlns:xlink="http://www.w3.org/1999/xlink">
 <defs>
  <style type="text/css">
   <![CDATA[
    .fil3 {fill:#FEFEFE}
    .fil2 {fill:#282828}
    .fil0 {fill:#36C6F3}
    .fil1 {fill:#FAFCFC}
   ]]>
  </style>
 </defs>
 <g id="Layer_x0020_1">
  <metadata id="CorelCorpID_0Corel-Layer"/>
  <g id="_2026060751280">
   <path class="fil0" d="M-0 15.57c0.66,0.02 4.7,-2.76 5.76,-3.46l8.37 -5.41c0.35,-0.26 0.46,-0.5 0.86,-0.34 0.32,0.73 0.1,3.05 0.16,4.05 0.3,0.35 0.84,0.66 0.86,1.31 0.04,1.44 -2.07,1.66 -2.19,0.13 -0.06,-0.76 0.4,-0.94 0.74,-1.43l-0.11 -3.13 -5.49 3.43c-0.66,0.42 -1.14,0.77 -1.73,1.13l-7.17 4.65c0.04,1.63 -0.12,1.67 0.37,2.3l0.14 0.15c0.1,0.12 -0,0.03 0.19,0.18 0.08,0.07 0.23,0.16 0.32,0.21 0.3,0.18 0.29,0.24 0.63,0.28 0.7,0.15 1.2,-0.48 1.73,-0.8 0.67,-0.4 0.9,-0.36 1.21,-1.28 0.75,-2.25 0.27,-1.58 1.52,-2.38 0.37,-0.23 0.38,-0.29 0.73,-0.49 0.55,-0.33 1.05,-0.6 1.64,-0.96 3.81,-2.31 1.42,-1.25 2.57,-2.52 1.09,-1.2 2.72,0.84 1.3,1.87 -0.9,0.66 -0.86,-0.4 -1.77,0.05 -0.21,0.1 -0.6,0.36 -0.86,0.52 -0.31,0.18 -0.49,0.32 -0.75,0.47 -3.02,1.76 -3.03,1.28 -3.89,3.68 -0.68,1.88 -2.11,1.45 -2.47,2.46l2.46 1.6c0.81,0.51 1.73,1.03 2.51,1.58 0.24,-0.56 9.77,-6.51 9.99,-6.65l-0.02 -6.8c-0.36,-0.41 -0.79,-0.51 -0.81,-1.3 -0.01,-0.66 0.46,-1.21 0.99,-1.27 0.62,-0.07 1.09,0.44 1.17,1 0.13,0.9 -0.34,1.08 -0.75,1.48l0.01 7.18c-0.9,0.8 -9,5.72 -9.7,6.33l-0.28 0.32c0.37,0.41 1.04,0.67 1.5,1.01 0.7,-0.18 8.67,-5.44 10,-6.22l0 -12.58c-0.85,-0.5 -1.6,-0.96 -2.46,-1.49 -0.81,-0.5 -6.94,-4.28 -7.54,-4.44l-4.88 3.17c-0.81,0.53 -1.57,1 -2.4,1.55 -0.86,0.56 -1.67,1.06 -2.46,1.64l0 9.21z"/>
   <path class="fil1" d="M-0 15.57l0 0.15c0,0.42 0,0.85 0,1.27l0 0.03 0 1.48c0.05,0.23 0.2,0.35 0.57,0.44l-0.14 -0.15c-0.49,-0.63 -0.33,-0.67 -0.37,-2.3l7.17 -4.65c0.59,-0.36 1.08,-0.71 1.73,-1.13l5.49 -3.43 0.11 3.13c-0.35,0.49 -0.8,0.68 -0.74,1.43 0.12,1.53 2.23,1.32 2.19,-0.13 -0.02,-0.65 -0.55,-0.96 -0.86,-1.31 -0.05,-1 0.16,-3.32 -0.16,-4.05 -0.4,-0.16 -0.51,0.08 -0.86,0.34l-8.37 5.41c-1.06,0.7 -5.1,3.48 -5.76,3.46z"/>
   <path class="fil1" d="M7.64 23.43l0.6 0.29 0.28 -0.32c0.69,-0.61 8.8,-5.53 9.7,-6.33l-0.01 -7.18c0.41,-0.4 0.88,-0.58 0.75,-1.48 -0.08,-0.57 -0.55,-1.07 -1.17,-1 -0.53,0.06 -1,0.61 -0.99,1.27 0.01,0.8 0.45,0.9 0.81,1.3l0.02 6.8c-0.22,0.14 -9.75,6.08 -9.99,6.65z"/>
   <path class="fil1" d="M9.07 1.54c-0.93,0.47 -0.4,0.98 -0.91,1.62 -0.21,0.27 -1.18,0.73 -1.52,0.95 -0.56,0.37 -0.48,0.94 -0.65,1.89 -0.46,2.55 0.04,2.17 -1.78,3.25 -1.28,0.76 -0.75,0.14 -1.67,0.23 -1.49,0.14 -1.09,3.03 0.48,2.37 1.05,-0.44 0.5,-1.15 0.87,-1.66 0.08,-0.11 1.27,-0.8 1.51,-0.93 1.16,-0.61 0.82,-1.1 1.26,-3.83 0.15,-0.92 0.49,-0.97 1.16,-1.32 0.08,-0.04 0.75,-0.4 0.78,-0.41 0.09,-0.02 2.15,0.72 1.92,-1.22 -0.08,-0.69 -0.83,-1.26 -1.45,-0.94z"/>
   <path class="fil1" d="M14.69 14.06c-1.2,0.62 -0.37,0.78 -0.89,1.54 -0.11,0.16 -1.12,0.76 -1.39,0.94 -0.88,0.59 -1.79,1.15 -2.82,1.81 -3.4,2.2 -1.52,0.5 -3.06,0.97 -1.44,0.43 -0.77,2.9 0.7,2.37 0.88,-0.32 0.51,-0.87 0.85,-1.52 0.13,-0.25 1.05,-0.74 1.38,-0.96l4.24 -2.73c1.14,-0.71 0.73,0.24 1.79,-0.16 1.29,-0.49 0.6,-2.98 -0.79,-2.26z"/>
   <path class="fil1" d="M1.71 19.63l0.15 0.15c0.21,0.19 0.05,0.07 0.23,0.2 0.22,0.15 0.24,0.19 0.57,0.28 0.36,-1.01 1.8,-0.57 2.47,-2.46 0.86,-2.4 0.87,-1.91 3.89,-3.68 0.26,-0.15 0.44,-0.29 0.75,-0.47 0.26,-0.15 0.65,-0.41 0.86,-0.52 0.91,-0.46 0.87,0.6 1.77,-0.05 1.41,-1.03 -0.21,-3.07 -1.3,-1.87 -1.16,1.26 1.23,0.21 -2.57,2.52 -0.59,0.36 -1.08,0.63 -1.64,0.96 -0.35,0.21 -0.36,0.26 -0.73,0.49 -1.26,0.81 -0.78,0.13 -1.52,2.38 -0.3,0.92 -0.53,0.88 -1.21,1.28 -0.53,0.32 -1.04,0.95 -1.73,0.8z"/>
   <path class="fil1" d="M11.83 5.04c-0.63,0.18 -1.37,0.86 -1.95,1.19 -0.37,0.21 -0.67,0.51 -1.03,0.49 -0.51,-0.03 -0.77,-0.31 -1.27,0.16 -1.17,1.08 0.43,3.06 1.52,1.82 0.43,-0.49 0.28,-0.72 0.32,-1.39 0.64,-0.45 2.29,-1.75 3.03,-1.63 0.52,0.08 0.77,0.31 1.27,-0.15 0.65,-0.59 0.49,-1.83 -0.37,-2.15 -1.08,-0.4 -1.34,0.71 -1.52,1.65z"/>
   <path class="fil2" d="M12.74 3.86c-0.37,0.14 -0.58,0.38 -0.43,0.99 0.11,0.41 0.42,0.56 0.94,0.45 0.85,-0.18 0.67,-1.88 -0.51,-1.43z"/>
   <path class="fil2" d="M15.5 12.27c0.15,-0.65 0.14,-0.68 -0.06,-1.18 -1.91,-0.65 -1.65,2.11 0.06,1.18z"/>
   <path class="fil2" d="M17.42 8.14c-0.11,0.11 -0.22,-0.14 -0.23,0.55 -0.01,0.4 0.02,0.39 0.2,0.56 0.21,0.2 0.81,0.21 1.02,-0.01 0.6,-0.6 -0.15,-1.98 -0.99,-1.1z"/>
   <path class="fil2" d="M6.27 19.91c-0.16,0.73 -0.05,0.91 0.26,1.41 0.66,-0 1.19,-0.19 0.99,-1.05 -0.19,-0.82 -0.68,-0.45 -1.25,-0.37z"/>
   <path class="fil2" d="M11.29 12.64c0.76,0.27 0.51,0.28 1.24,-0.14l-0.1 -1.11c-1.15,-0.37 -1.28,0.12 -1.14,1.25z"/>
   <path class="fil2" d="M15.57 15.82c0.23,-0.59 0.19,-0.78 -0.05,-1.33l-0.9 -0.04c-0.55,1.08 -0.14,1.59 0.96,1.36z"/>
   <path class="fil2" d="M8.84 3.16c0.38,0.18 0.79,0.2 1.2,0.07 0.13,-0.56 0.17,-1.19 -0.46,-1.29 -0.76,-0.11 -0.89,0.45 -0.74,1.22z"/>
   <path class="fil2" d="M2.08 11.31l1.12 0.08c0.55,-2.01 -1.7,-1.87 -1.12,-0.08z"/>
   <path class="fil2" d="M7.69 8.18l0.28 0.26 0.76 0.04c0.19,-0.41 0.38,-1.1 -0.18,-1.29 -0.82,-0.27 -0.95,0.26 -0.85,0.98z"/>
  </g>
  <g id="_2026060760240">
   <g>
    <path class="fil3" d="M85.27 6.08c-0.92,0 -2.39,-0.33 -2.39,0.6l0 11.67 2.39 0c-0.6,0.99 -2.1,1.86 -2.39,3.02 2.34,0 5.81,0.36 7.53,-0.4 1.54,-0.68 3.48,-2.75 3.48,-5.04l0 -7.24c0,-2.08 -1.52,-4.21 -3.3,-5.03 -0.43,-0.2 -0.95,-0.32 -1.53,-0.4l-5.89 0 -0.11 0c0.27,1.1 1.63,1.88 2.2,2.82zm0.55 0.03l2.55 0c1.4,0 2.55,1.26 2.55,2.8l0 6.12c0,1.54 -1.15,2.8 -2.55,2.8l-2.55 0 0 -11.73z"/>
    <path class="fil3" d="M65.81 8.5l0 7.45c0,4.25 6.05,8.13 9.79,3.08 0.61,-0.83 1.23,-1.5 1.23,-2.88l0 -7.85c0,-1.01 -1.16,-2.8 -1.69,-3.38 -0.93,-1.03 -2.04,-1.53 -3.16,-1.65l-1.04 0c-2.68,0.27 -5.13,2.61 -5.13,5.23zm2.84 -2.27l2.73 0c1.36,0 2.48,1.22 2.48,2.72l0 6.03c0,1.57 -1.17,2.86 -2.6,2.86l0 0c-1.43,0 -2.6,-1.29 -2.6,-2.86l0 -8.75z"/>
    <path class="fil3" d="M40.66 20.77c0,0.91 0.94,0.6 2.94,0.6l0 -11.07c0.57,0.46 0.95,1.68 1.28,2.41 0.33,0.71 0.93,1.83 1.1,2.62l0.37 0c0.13,-0.55 0.91,-2 1.22,-2.68 0.53,-1.17 0.86,-2.36 1.35,-2.75l0 11.47c1.99,0 2.94,0.31 2.94,-0.6l0 -14.09c0,-0.62 -2.44,-3.06 -2.94,-3.42 -0.53,0.87 -0.88,1.73 -1.35,2.75 -0.63,1.39 -0.87,2.47 -1.59,2.68 -0.03,-0.15 -1.95,-5.43 -2.75,-5.43l-2.57 0 0 17.51z"/>
    <path class="fil3" d="M59.75 6.49c-0.19,0.88 -4.19,9.38 -4.9,10.93 -0.46,1 -1.51,2.79 -1.53,3.96l10.83 0c-0.22,-0.91 -1.52,-1.99 -2.14,-2.68 -0.67,-0.73 -0.66,-0.56 -1.89,-0.55 -0.8,0.01 -1.59,0.01 -2.39,0.01 0.31,-1.47 6.33,-13.71 6.42,-14.89l-10.83 0c2.41,3.94 3.05,3.22 6.42,3.22z"/>
    <path class="fil3" d="M23.6 3.27c0.47,0.96 0.83,1.2 1.51,1.96 0.84,0.93 0.77,1.26 2.34,1.26l0 14.89c3.73,0 2.94,1.13 2.94,-5.84 0,-3.02 0,-6.04 0,-9.06 4.89,0 4.04,0.79 4.04,-3.22l-10.83 0z"/>
    <path class="fil3" d="M78.29 20.77c0,0.46 0.13,0.6 0.55,0.6l2.39 0 0 -18.11 -2.94 0 0 17.51z"/>
    <path class="fil3" d="M36.08 20.77c0,0.46 0.13,0.6 0.55,0.6l2.39 0 0 -18.11 -2.94 0 0 17.51z"/>
   </g>
  </g>
 </g>
</svg>
